<?xml version="1.0" encoding="UTF-8" standalone="no"?>
<!-- Created with Inkscape (http://www.inkscape.org/) -->

<svg
   width="433.14365mm"
   height="394.37958mm"
   viewBox="0 0 433.14365 394.37958"
   version="1.1"
   id="svg5"
   inkscape:version="1.1 (c68e22c387, 2021-05-23)"
   sodipodi:docname="drawing.svg"
   inkscape:export-filename="D:\Desktop\Temporal\P10-6.png"
   inkscape:export-xdpi="96"
   inkscape:export-ydpi="96"
   xmlns:inkscape="http://www.inkscape.org/namespaces/inkscape"
   xmlns:sodipodi="http://sodipodi.sourceforge.net/DTD/sodipodi-0.dtd"
   xmlns="http://www.w3.org/2000/svg"
   xmlns:svg="http://www.w3.org/2000/svg">
  <sodipodi:namedview
     id="namedview7"
     pagecolor="#ffffff"
     bordercolor="#666666"
     borderopacity="1.0"
     inkscape:pageshadow="2"
     inkscape:pageopacity="0.0"
     inkscape:pagecheckerboard="0"
     inkscape:document-units="mm"
     showgrid="false"
     inkscape:zoom="0.60221661"
     inkscape:cx="779.61981"
     inkscape:cy="740.59731"
     inkscape:window-width="1920"
     inkscape:window-height="1057"
     inkscape:window-x="-8"
     inkscape:window-y="-8"
     inkscape:window-maximized="1"
     inkscape:current-layer="layer1" />
  <defs
     id="defs2" />
  <g
     inkscape:label="Layer 1"
     inkscape:groupmode="layer"
     id="layer1"
     transform="translate(118.52467,53.798575)">
    <g
       id="g832"
       transform="matrix(0.35277777,0,0,-0.35277777,-3.7160846,253.36117)" />
    <path
       style="fill:#000000;stroke-width:0.352778"
       d="m 141.75919,340.36599 c 0.25466,-0.10192 0.55894,-0.0894 0.67616,0.0279 0.11723,0.11723 -0.0911,0.20063 -0.46302,0.18531 -0.41097,-0.0169 -0.49456,-0.10054 -0.21314,-0.21314 z m 87.2301,-2.08146 c 0.0169,-0.41098 0.10054,-0.49456 0.21315,-0.21315 0.10191,0.25467 0.0894,0.55894 -0.0279,0.67617 -0.11723,0.11723 -0.20063,-0.0912 -0.18532,-0.46302 z m 74.76106,-1.91089 c 0,-0.19403 0.15875,-0.35278 0.35277,-0.35278 0.19403,0 0.35278,0.15875 0.35278,0.35278 0,0.19403 -0.15875,0.35278 -0.35278,0.35278 -0.19402,0 -0.35277,-0.15875 -0.35277,-0.35278 z m -0.83312,-4.7625 c 0.11168,-0.29104 0.33983,-0.52917 0.50701,-0.52917 0.16718,0 0.21258,0.23813 0.10089,0.52917 -0.11169,0.29104 -0.33983,0.52917 -0.50701,0.52917 -0.16718,0 -0.21258,-0.23813 -0.10089,-0.52917 z M 156.99478,310.26809 c 0,-0.19403 0.15875,-0.35278 0.35278,-0.35278 0.19403,0 0.35278,0.15875 0.35278,0.35278 0,0.19402 -0.15875,0.35277 -0.35278,0.35277 -0.19403,0 -0.35278,-0.15875 -0.35278,-0.35277 z M 13.539869,298.38544 c -0.22193,-0.0801 -0.32161,-0.45886 -0.22149,-0.8417 0.13526,-0.51727 0.29735,-0.60035 0.63097,-0.32349 0.24692,0.20493 0.64425,0.32734 0.88295,0.27202 0.23871,-0.0553 0.51528,0.13755 0.6146,0.42859 0.0993,0.29105 0.0586,0.41568 -0.0905,0.277 -0.14909,-0.13871 -0.52801,-0.12047 -0.84205,0.0405 -0.31404,0.16097 -0.75256,0.22715 -0.9745,0.14704 z m 7.28269,-5.75624 c 0,-0.19403 0.3175,-0.35278 0.70556,-0.35278 0.38805,0 0.70555,0.15875 0.70555,0.35278 0,0.19402 -0.3175,0.35277 -0.70555,0.35277 -0.38806,0 -0.70556,-0.15875 -0.70556,-0.35277 z m -8.64306,-4.93889 c -0.11991,-0.19403 0.0388,-0.35278 0.35278,-0.35278 0.31395,0 0.4727,0.15875 0.35278,0.35278 -0.11992,0.19403 -0.27867,0.35278 -0.35278,0.35278 -0.0741,0 -0.23286,-0.15875 -0.35278,-0.35278 z m -130.704169,-6.35 c 0,-0.19403 0.23813,-0.35278 0.52917,-0.35278 0.29104,0 0.52916,0.15875 0.52916,0.35278 0,0.19403 -0.23812,0.35278 -0.52916,0.35278 -0.29104,0 -0.52917,-0.15875 -0.52917,-0.35278 z m 1.5875,0.0688 c 0.19403,-0.19983 2.25778,-0.46045 4.58612,-0.57916 2.32833,-0.11871 4.86833,-0.28616 5.64444,-0.37209 0.77611,-0.0859 4.26861,-0.25765 7.761109,-0.38158 3.4925,-0.12393 6.90563,-0.26809 7.58472,-0.32035 0.6791,-0.0523 3.69535,-0.20298 6.70278,-0.33493 3.00743,-0.13194 9.83368,-0.46267 15.16945,-0.73495 5.33576,-0.27229 11.76514,-0.58281 14.2875,-0.69006 2.52236,-0.10725 6.33236,-0.2748 8.46666,-0.37233 2.13431,-0.0975 6.26181,-0.25359 9.17223,-0.3468 2.91041,-0.0932 7.27604,-0.26309 9.70139,-0.3775 2.42534,-0.11442 5.60034,-0.26154 7.05555,-0.32695 1.45521,-0.0654 4.15396,-0.20999 5.99722,-0.32131 1.84327,-0.11132 6.1295202,-0.2851 9.5250002,-0.38618 3.39549,-0.10109 7.14768,-0.27401 8.3382,-0.38428 1.31211,-0.12152 2.25219,-0.0587 2.38701,0.1594 0.12233,0.19794 0.10076,0.43158 -0.0479,0.51921 -0.14869,0.0876 -4.55658999,0.27303 -9.79534,0.41198 -5.23875,0.13896 -9.6075802,0.30317 -9.7085102,0.36493 -0.10093,0.0618 -3.12206,0.20309 -6.71361,0.31409 -3.59154,0.111 -7.23959,0.28041 -8.10676,0.37646 -0.86717,0.096 -3.87855,0.25261 -6.69195,0.3479 -2.81341,0.0953 -6.70278,0.24907 -8.64306,0.34173 -1.94028,0.0926 -6.38528,0.27394 -9.87778,0.40285 -3.4925,0.12892 -7.14375,0.27889 -8.11389,0.33328 -0.97014,0.0544 -4.54201,0.19595 -7.9375,0.31458 -3.39548,0.11863 -7.60236,0.29225 -9.34861,0.38582 -1.74625,0.0936 -5.31812,0.25293 -7.9375,0.35412 -8.24166,0.31838 -13.866859,0.56858 -15.874999,0.7061 -1.06715,0.0731 -4.32153,0.22508 -7.23194,0.33778 -2.91042,0.11271 -5.60918,0.29866 -5.99723,0.41323 -0.47993,0.1417 -0.59274,0.0921 -0.35278,-0.15499 z m 131.762509,-0.94565 c 0,-0.48229 0.18357,-1.56323 0.40793,-2.40209 0.45886,-1.71564 0.18025,-3.42381 -0.55844,-3.42381 -0.29235,0 -0.67211,0.71115 -0.94192,1.76389 -0.25367,0.98977 -0.65504,1.76389 -0.91454,1.76389 -0.6651,0 -0.57042,-1.07741 0.25959,-2.95377 0.55689,-1.25895 0.90769,-1.63234 1.53359,-1.63234 0.49725,0 0.95417,0.30738 1.17988,0.79375 0.36832,0.79365 0.36841,0.79363 0.75947,-0.19936 0.21511,-0.5462 0.39111,-1.2909 0.39111,-1.65487 0,-0.36398 0.17258,-0.76843 0.38351,-0.8988 0.74054,-0.45768 0.968,0.38575 0.48082,1.78289 -0.77896,2.23391 -0.80596,4.41487 -0.0605,4.89096 0.84882,0.54212 1.3004,-0.19903 1.30747,-2.14586 0.004,-1.17667 0.11618,-1.44572 0.53457,-1.28518 0.66092,0.25363 0.72295,2.90375 0.0882,3.76844 -0.64693,0.88128 -1.85064,0.98698 -2.65937,0.23353 -0.88673,-0.82611 -1.13299,-0.58195 -1.13299,1.12329 0,0.96688 -0.15083,1.35232 -0.52917,1.35232 -0.32844,0 -0.52917,-0.33262 -0.52917,-0.87688 z M 4.2419992,280.03699 c 0,-0.35725 0.39688,-1.23359 0.88195,-1.94743 1.14347,-1.68277 1.11177,-2.46167 -0.17639,-4.33394 -1.24504,-1.80961 -1.27234,-1.93019 -0.38435,-1.69798 0.37069,0.0969 1.0451,0.87583 1.4987,1.73087 0.49448,0.9321 1.07217,1.55461 1.44268,1.55461 0.90019,0 0.75584,0.95173 -0.24366,1.60663 -0.47391,0.31051 -1.08237,1.22698 -1.35216,2.0366 -0.50793,1.52431 -1.66677,2.25478 -1.66677,1.05064 z M 84.256369,264.08691 c -0.0606,-2.11634 0.009,-3.77384 0.15438,-3.68335 0.26043,0.16194 0.28973,-1.37147 0.27405,-14.341 -0.008,-6.8207 -0.33515,-23.37512 -0.46408,-23.501 -0.041,-0.04 -2.54463,1.14351 -5.56362,2.63009 -3.01899,1.48657 -5.98589,2.88386 -6.5931,3.10508 l -1.10404,0.40222 0.0416,2.68034 c 0.0229,1.47418 -0.0606,2.7825 -0.18545,2.90736 -0.12486,0.12485 -0.0912,0.48395 0.0748,0.79799 0.16598,0.31404 0.30727,3.58723 0.31396,7.27375 0.007,3.68653 0.12022,10.61209 0.25229,15.39014 0.17929,6.48613 0.13534,8.75212 -0.17345,8.94296 -0.75944,0.46936 -0.89648,-0.20316 -0.7993,-3.92268 0.0531,-2.03166 -0.005,-3.85746 -0.12809,-4.05734 -0.12352,-0.19988 -0.21223,-6.85827 -0.19711,-14.79644 0.019,-9.95329 -0.0886,-14.43302 -0.34665,-14.43302 -0.20577,0 -0.7955,0.2239 -1.31051,0.49757 -0.515,0.27367 -1.492,0.75431 -2.17109,1.06809 -0.6791,0.31378 -1.47285,0.7132 -1.76389,0.8876 -0.29104,0.1744 -1.87854,0.91451 -3.52778,1.64469 -1.64924,0.73017 -3.15286,1.45966 -3.3414,1.62107 -0.18853,0.16142 -0.39332,1.12349 -0.4551,2.13793 -0.16179,2.65681 -0.17277,2.7132 -0.4899,2.5172 -0.15853,-0.098 -0.2146,-1.0435 -0.12461,-2.10115 0.0935,-1.09852 0.0194,-1.923 -0.17268,-1.923 -0.18498,0 -1.01526,0.30674 -1.84507,0.68164 -0.82981,0.3749 -1.75335,0.75405 -2.05231,0.84255 -0.46388,0.13733 -0.53213,0.96744 -0.46559,5.66275 0.0429,3.02601 -0.0498,5.58079 -0.20586,5.67727 -0.15611,0.0965 -0.16259,0.85307 -0.0144,1.6813 0.42078,2.35162 0.42116,14.38226 3.5e-4,14.38226 -0.19719,0 -0.37546,-0.19843 -0.39614,-0.44097 -0.19604,-2.29879 -0.34134,-9.4528 -0.34391,-16.93333 -0.002,-4.99622 -0.11502,-9.08213 -0.25178,-9.0798 -0.13676,0.002 -1.43927,0.59763 -2.89448,1.32291 l -2.64574,1.31869 -0.0553,6.17361 c -0.0304,3.39549 -0.097,6.88799 -0.14799,7.76112 -0.051,0.87312 -0.0261,3.24113 0.0553,5.26224 0.10164,2.52372 0.024,3.7161 -0.24806,3.80679 -0.71517,0.23843 -0.80001,-1.2853 -0.65832,-11.824 0.077,-5.72966 0.0538,-10.55708 -0.0516,-10.7276 -0.10539,-0.17051 -0.39677,-0.13976 -0.64751,0.0683 -0.25075,0.2081 -1.52188,0.89655 -2.82474,1.5299 l -2.36884,1.15154 0.0295,8.74431 c 0.0162,4.80937 0.12023,8.89113 0.23113,9.07056 0.1109,0.17944 -0.0254,0.32625 -0.30277,0.32625 -0.36472,0 -0.5684,-0.65947 -0.73548,-2.38125 -0.28952,-2.98353 -0.33081,-14.07584 -0.0541,-14.52363 0.41518,-0.67177 -0.49873,-0.72952 -1.63535,-0.10334 -0.64311,0.35429 -1.72491,0.86335 -2.40401,1.13124 -0.67909,0.26788 -2.46503,1.16098 -3.96875,1.98466 -1.50371,0.82368 -2.73402,1.43546 -2.73402,1.35952 0,-0.076 -0.75407,0.23783 -1.6757,0.69728 -0.92163,0.45946 -3.02507,1.46524 -4.67431,2.23509 -1.64923,0.76984 -4.74486,2.24342 -6.87916,3.27461 -3.8222198,1.84672 -4.0857998,1.96068 -4.7372998,2.04839 -0.18017,0.0243 -0.53736,0.24253 -0.79375,0.48507 -1.08609,1.02738 -3.20011,1.27897 -12.63701,1.50395 -5.33576,0.1272 -10.8920102,0.29122 -12.3472202,0.36449 -3.394,0.17087 -19.27075,0.77821 -26.81111,1.02561 -8.68449,0.28494 -24.31816,0.86756 -28.92778,1.07805 -2.23132,0.10189 -6.51757,0.27518 -9.525,0.38508 -3.00743,0.10991 -7.13493,0.31842 -9.17222,0.46336 -3.35705,0.23883 -4.69708,0.16462 -3.67692,-0.20362 0.2537,-0.0916 0.35363,-1.92254 0.30061,-5.50795 -0.0437,-2.95393 -0.19505,-16.7214 -0.3364,-30.59439 -0.14135,-13.87298 -0.30417,-27.60486 -0.36182,-30.51528 -0.0577,-2.91041 -0.11697,-12.79562 -0.13182,-21.96713 l -0.027,-16.67547 -0.88194,0.22135 c -1.37471,0.34503 -1.05612,-0.45183 0.44097,-1.10296 0.72761,-0.31646 1.59654,-0.71951 1.93097,-0.89568 0.33443,-0.17616 3.03318,-1.51507 5.99723,-2.97536 2.96404,-1.46029 5.86541,-2.90603 6.4475,-3.21276 3.69293,-1.94597 22.43278,-11.22552 22.75416,-11.26735 0.18604,-0.0242 13.9562,-6.88258 18.16806,-9.04878 1.35819,-0.69853 8.02569,-4.00197 14.81667,-7.34098 6.79097,-3.33902 16.9509702,-8.33809 22.5777802,-11.10905 17.7577998,-8.74497 19.1100098,-9.34994 21.2977698,-9.52847 1.52165,-0.12417 7.63841,-0.41614 10.76654,-0.51392 0.17362,-0.005 0.23057,-1.352011 0.12723,-3.008431 -0.14605,-2.34094 -0.0851,-2.99861 0.27791,-2.99861 0.25575,0 4.21483,-1.82563 8.79796,-4.05695 4.58313,-2.23132 8.55922,-4.05694 8.83576,-4.05694 0.35029,0 0.45654,-0.29426 0.35029,-0.97014 -0.0839,-0.53358 -0.23376,-5.70019 -0.33307,-11.48135 -0.0993,-5.78116 -0.27631,-10.666136 -0.39334,-10.855497 -0.11704,-0.18936 -0.50754,0.0163 -0.8678,0.457038 -0.49954,0.611149 -0.75411,0.703993 -1.07255,0.391192 -0.32089,-0.3152 -0.26544,-0.615851 0.23954,-1.298794 1.10268,-1.491283 2.16798,-1.791589 3.71993,-1.048635 2.12489,1.017227 1.66661,1.534114 -0.55374,0.624558 -0.63974,-0.262061 -0.6574,-0.07995 -0.44939,4.634278 0.11908,2.69889 0.32215,8.04238 0.45126,11.87443 0.12912,3.83205 0.33928,6.96736 0.46703,6.96736 0.12775,0 0.38515,-0.15288 0.57201,-0.33973 0.18685,-0.18685 1.97297,-1.13842 3.96916,-2.1146 l 3.62943,-1.77487 -0.19235,-2.03054 c -0.17846,-1.88393 -0.59931,-10.83104 -0.68736,-14.612945 -0.0497,-2.133812 -0.33674,-2.364281 -1.40549,-1.128434 -0.81021,0.936879 -0.8933,0.961602 -1.1355,0.337891 -0.19114,-0.492213 -0.009,-0.890351 0.67969,-1.482386 0.51756,-0.445185 0.94102,-0.950313 0.94102,-1.122504 0,-0.172191 0.40595,-0.498034 0.90211,-0.724098 1.07379,-0.489257 1.9064,-0.137724 2.76023,1.165391 0.80761,1.23257 0.31348,1.122991 -1.12848,-0.250257 -0.95162,-0.906272 -1.1637,-0.998678 -1.01207,-0.440972 0.17688,0.650564 0.6699,12.165664 0.74646,17.434454 0.0228,1.56811 0.1799,2.314 0.51064,2.42425 0.26274,0.0876 0.57841,0.0208 0.70149,-0.14835 0.12308,-0.16916 1.13717,-0.7427 2.25353,-1.27451 l 2.02975,-0.96693 -0.26586,-5.73585 c -0.14622,-3.15471 -0.26585,-7.68053 -0.26585,-10.05737 0,-2.37684 -0.10754,-4.321527 -0.23898,-4.321527 -0.13144,0 -0.52993,0.36988 -0.88553,0.821954 -0.68298,0.868271 -1.52133,0.879027 -1.52133,0.01951 0,-0.280963 0.23208,-0.599899 0.51574,-0.708748 0.28366,-0.108846 0.61185,-0.50074 0.72933,-0.870871 0.27435,-0.864415 0.90802,-0.853715 1.92993,0.0326 0.44743,0.388055 1.03672,0.705555 1.30952,0.705555 0.27281,0 0.39391,0.165206 0.26911,0.367129 -0.12479,0.201919 -0.53103,0.270598 -0.90276,0.152615 -0.63138,-0.200392 -0.67587,-0.008 -0.67587,2.922023 0,3.175377 0.68409,16.05549 0.86226,16.23472 0.22451,0.22585 7.60441,-3.48545 7.60441,-3.8242 0,-0.20444 0.1765,-0.26262 0.39222,-0.1293 0.7435,0.4595 1.00937,-0.73732 0.74991,-3.37577 -0.1431,-1.45521 -0.26019,-4.35235 -0.26019,-6.438087 0,-2.085742 -0.0854,-3.792305 -0.18978,-3.792361 -0.10438,-5.6e-5 -0.2265,-1.061505 -0.2714,-2.358771 -0.0449,-1.29727 -0.16878,-2.445836 -0.27532,-2.552368 -0.10653,-0.106536 -0.49177,0.200804 -0.85608,0.682974 -0.52945,0.700744 -0.75096,0.788374 -1.1038,0.436661 -0.35325,-0.352125 -0.29714,-0.63398 0.28093,-1.411111 0.89485,-1.203 2.05719,-1.429141 2.63013,-0.511715 0.25874,0.414299 0.67927,0.613894 1.07526,0.510339 0.35769,-0.09354 0.65034,0.0072 0.65034,0.223855 0,0.216659 -0.38549,0.393923 -0.85665,0.393923 -0.84874,0 -0.8554,0.02692 -0.72128,2.910416 0.0745,1.600729 0.25451,4.497917 0.40012,6.438195 0.14562,1.94027 0.27176,4.50257 0.28031,5.69398 l 0.0156,2.1662 3.52778,-0.0495 c 2.32651,-0.0327 3.5042,-0.18033 3.45854,-0.43363 -0.0381,-0.21125 -0.16843,-2.98938 -0.28968,-6.17361 -0.22166,-5.821388 -0.53681,-7.256238 -1.20674,-5.49418 -0.36945,0.971716 -0.87476,1.204383 -1.26043,0.580355 -0.12204,-0.197468 0.24664,-0.95153 0.8193,-1.675695 0.57266,-0.724161 1.10149,-1.632133 1.17518,-2.017716 0.1119,-0.585523 0.26219,-0.483774 0.91187,0.617361 0.42784,0.725132 0.95136,1.318419 1.16338,1.318419 0.21203,0 0.28099,0.16909 0.15327,0.375758 -0.15312,0.247752 -0.44873,0.179835 -0.86774,-0.199369 -0.58173,-0.526454 -1.34533,-0.228198 -0.80335,0.313782 0.34049,0.340494 0.38967,0.86076 0.65398,6.918155 0.13123,3.00743 0.28225,5.54743 0.3356,5.64445 0.0533,0.097 1.58108,0.12421 3.39496,0.0604 2.60112,-0.0914 3.18616,-0.20326 2.76881,-0.52917 -0.33922,-0.26488 -0.51993,-0.98308 -0.50342,-2.00072 0.0141,-0.87312 -0.0821,-1.905 -0.21393,-2.29305 -0.33137,-0.97546 -0.0515,-1.5875 0.72593,-1.5875 0.36043,0 0.77955,-0.19844 0.93137,-0.44097 0.26949,-0.43053 0.18753,-7.707034 -0.0901,-7.994135 -0.077,-0.07965 -0.44849,0.134334 -0.82551,0.475534 -0.63364,0.57344 -1.43551,0.51302 -1.43551,-0.108162 0,-0.145743 0.50737,-0.783932 1.12748,-1.418198 0.89201,-0.912368 1.31565,-1.107585 2.02847,-0.934734 0.49555,0.120166 1.09944,0.238558 1.34197,0.263094 0.97564,0.09871 0.40138,0.985354 -0.63818,0.985354 -0.59354,0 -0.99543,0.135467 -0.8931,0.301036 0.10233,0.165569 0.27518,1.943012 0.38411,3.949869 0.10893,2.006858 0.25371,3.704472 0.32172,3.772482 0.068,0.068 0.84789,-0.28068 1.73307,-0.774862 0.88518,-0.494189 1.84597,-0.898525 2.13511,-0.898525 0.55702,0 1.10203,-1.193697 0.78167,-1.712044 -0.24811,-0.401454 -0.50964,-5.047136 -0.61482,-10.921496 -0.0463,-2.58282 -0.18273,-4.757 -0.30329,-4.831507 -0.12056,-0.07451 -0.49542,0.332144 -0.83303,0.903676 -0.63609,1.076805 -1.40507,1.339416 -1.84373,0.629648 -0.32952,-0.533174 2.0959,-2.765499 3.00471,-2.765499 0.37783,0 0.78773,0.3175 0.9109,0.705556 0.12316,0.388055 0.45136,0.705555 0.72933,0.705555 0.27796,0 0.50539,0.15875 0.50539,0.352778 0,0.194028 -0.33673,0.352778 -0.74829,0.352778 -0.74351,0 -0.74639,0.0355 -0.44952,5.55625 0.16432,3.055937 0.26521,6.35 0.2242,7.320139 -0.10973,2.595453 0.13836,2.77672 2.32155,1.696272 l 1.85497,-0.918013 -0.0913,-3.502931 c -0.0502,-1.926612 -0.21969,-3.582268 -0.37659,-3.679233 -0.15689,-0.09697 -0.58654,0.192991 -0.95475,0.644356 -0.59327,0.727223 -0.69602,0.752556 -0.90247,0.222511 -0.14945,-0.383734 0.12568,-1.047627 0.76755,-1.852073 1.10613,-1.386303 1.56837,-1.528293 2.26047,-0.694369 0.31514,0.37972 0.78821,0.494817 1.471841,0.358091 0.7382,-0.147641 0.94093,-0.08506 0.75858,0.234174 -0.70048,1.226312 -0.89436,1.309966 -1.868521,0.806206 -0.92655,-0.479139 -0.95033,-0.466643 -0.85683,0.450265 0.0529,0.518692 0.20312,2.17339 0.33385,3.677105 0.13072,1.503715 0.29109,2.734027 0.35637,2.734027 0.0653,0 1.471111,-0.633571 3.124081,-1.407936 l 3.00539,-1.407932 -0.0309,-2.384429 c -0.017,-1.311433 -0.15601,-3.178175 -0.30892,-4.148313 -0.22591,-1.433287 -0.32701,-1.615119 -0.5394,-0.970139 -0.26855,0.81547 -1.03135,1.059829 -1.40767,0.450938 -0.32227,-0.521448 0.8614,-2.109579 1.73591,-2.329067 0.50159,-0.125892 1.30186,0.151751 2.27628,0.789725 1.39691,0.914583 1.45115,1.006898 0.7701,1.310788 -0.54992,0.245381 -0.91873,0.159438 -1.47881,-0.344611 l -0.74617,-0.671523 0.19964,1.5875 c 0.10981,0.873125 0.20771,2.579687 0.21758,3.792361 0.02,2.461542 0.3778,2.730295 2.08013,1.562481 0.51502,-0.353311 1.86311,-1.027998 2.99574,-1.499306 l 2.05935,-0.856925 -0.19936,-2.998611 c -0.10965,-1.649236 -0.20796,-3.474861 -0.21848,-4.056945 -0.0173,-0.955865 -0.0645,-0.998562 -0.48776,-0.440972 -1.09333,1.440275 -1.78138,0.08933 -0.72364,-1.420809 0.56873,-0.811964 1.71559,-1.04787 2.09667,-0.431274 0.11991,0.194028 0.61876,0.352778 1.10855,0.352778 0.56049,0 0.83266,0.163424 0.7344,0.440972 -0.0859,0.242534 -0.5487,0.414732 -1.02851,0.382665 l -0.8724,-0.05831 0.16041,3.762473 c 0.0882,2.06936 0.21935,3.827646 0.29139,3.907304 0.072,0.07965 0.40978,-0.105467 0.75052,-0.411382 0.34074,-0.305914 1.31575,-0.833504 2.16669,-1.172421 l 1.54716,-0.616211 -0.22213,-2.852964 c -0.12217,-1.56913 -0.22308,-4.663503 -0.22425,-6.87639 -0.002,-4.016685 -0.003,-4.022344 -0.71601,-3.377364 -0.55045,0.498147 -0.80966,0.550302 -1.13216,0.227796 -0.3225,-0.322506 -0.24379,-0.54047 0.34378,-0.952024 0.41911,-0.293564 1.00417,-0.775896 1.30013,-1.071844 0.48227,-0.482269 0.64876,-0.456273 1.60485,0.250588 1.35934,1.005011 1.36188,1.48244 0.006,1.184702 -0.99609,-0.218775 -1.04163,-0.183014 -0.75055,0.589333 0.17045,0.452233 0.33531,3.346076 0.36637,6.430765 0.031,3.084689 0.14177,5.746545 0.24603,5.915236 0.10426,0.168692 0.59674,-0.01358 1.09442,-0.405052 0.49767,-0.39147 1.12373,-0.711764 1.39125,-0.711764 0.2675,0 0.76634,-0.174841 1.10852,-0.388539 0.52638,-0.328733 0.5894,-0.722394 0.40943,-2.557639 -0.11698,-1.193003 -0.17308,-2.698697 -0.12464,-3.345981 0.0843,-1.126786 0.0601,-1.151593 -0.56837,-0.582803 -0.60023,0.54319 -1.41449,0.477379 -1.40084,-0.11322 0.003,-0.13407 0.46436,-0.764053 1.02504,-1.399964 l 1.01941,-1.156204 1.25515,0.627038 c 1.60844,0.803522 1.99222,1.602803 0.69424,1.445838 l -0.93651,-0.113248 0.0285,2.941708 c 0.0157,1.617941 0.10378,3.016973 0.19576,3.108959 0.28429,0.28429 5.52949,-2.352611 5.57668,-2.803546 0.1657,-1.583372 0.0889,-11.181901 -0.0895,-11.183115 -0.12176,-7.06e-4 -0.41901,0.236619 -0.66056,0.52766 -0.46704,0.562758 -1.41112,0.723671 -1.41112,0.240517 0,-0.158753 0.50521,-0.945984 1.1227,-1.749397 l 1.12269,-1.46075 1.11273,1.132039 c 1.09808,1.117124 1.102,1.133493 0.29786,1.242752 l -0.81487,0.110715 0.20543,4.475396 c 0.11298,2.461468 0.23078,4.87227 0.26177,5.357339 0.0575,0.900776 0.44415,1.015351 1.80698,0.535517 0.57202,-0.201401 0.53863,-0.110148 -0.17639,0.482134 -0.48507,0.401804 -1.07235,0.734078 -1.30507,0.738392 -0.31057,0.0058 -0.38092,0.922744 -0.26447,3.447429 0.0873,1.891771 0.22468,7.44166 0.30537,12.333083 0.0807,4.891428 0.24877,9.058608 0.37349,9.260418 0.12472,0.2018 0.67345,0.36691 1.2194,0.36691 0.93719,0 1.00237,-0.10143 1.16715,-1.81634 0.24628,-2.56302 0.0341,-3.12254 -1.18424,-3.12254 -1.29843,0 -1.34209,-0.69212 -0.047,-0.7457 2.57511,-0.106533 8.02234,-0.257176 11.12128,-0.307553 l 3.44835,-0.05606 -0.17621,-1.650206 c -0.21028,-1.969322 -0.70704,-16.870338 -0.71656,-21.493956 -0.004,-1.794757 -0.1528,-3.263194 -0.33136,-3.263194 -0.30553,0 -4.59183,1.810759 -5.93716,2.508165 -0.35246,0.182714 -0.61736,0.18602 -0.61736,0.0077 0,-0.319105 3.17779,-1.810336 3.85776,-1.810336 0.20657,0 0.37557,-0.155726 0.37557,-0.346057 0,-0.190331 0.39939,-0.446296 0.88753,-0.568812 0.48813,-0.122513 1.20251,-0.623196 1.5875,-1.112629 0.38499,-0.48943 0.69997,-0.691201 0.69997,-0.448377 0,0.427863 0.51979,0.380806 1.85209,-0.167679 0.36923,-0.152001 0.61736,-0.09719 0.61736,0.136366 0,0.214789 -0.30616,0.390522 -0.68036,0.390522 -1.34282,0 -1.70651,0.839159 -1.5581,3.595101 0.0764,1.418181 0.21191,5.59476 0.30121,9.281287 0.22959,9.478275 0.44484,13.870548 0.69996,14.283351 0.12354,0.199898 1.68449,0.356927 3.54805,0.356927 h 3.32745 l -0.16395,-3.96875 c -0.0902,-2.182813 -0.35246,-8.777365 -0.58285,-14.654558 -0.23039,-5.877197 -0.5488,-10.7661 -0.70758,-10.864233 -0.15878,-0.09813 -0.6316,0.0051 -1.05071,0.229401 -1.00334,0.53697 -2.83605,1.056704 -2.63997,0.748662 0.17243,-0.270895 2.17363,-1.301253 3.12282,-1.607852 0.5405,-0.174586 0.61736,-0.703291 0.61736,-4.246612 0,-4.035693 -0.23573,-4.903625 -1.06156,-3.908562 -0.23976,0.288904 -0.57525,0.525282 -0.74552,0.525282 -0.56899,0 -0.31858,-0.701562 0.63067,-1.766944 1.03289,-1.159234 2.08473,-1.337147 3.13746,-0.530683 0.65958,0.505287 0.65234,0.521518 -0.19658,0.440972 l -0.88136,-0.08362 0.0814,3.174999 c 0.23189,9.046983 0.48736,16.829109 0.61957,18.873611 0.1861,2.878042 0.53879,13.305134 0.53526,15.82486 l -0.003,1.890137 3.43958,-0.212556 c 1.89177,-0.116907 6.53521,-0.300884 10.31875,-0.408837 14.19716,-0.405081 23.66466,-0.876374 24.25791,-1.207559 0.33711,-0.188196 1.88292,-0.916933 3.43515,-1.619412 3.70557,-1.67701 9.9093,-4.651699 11.46527,-5.497608 0.6791,-0.369192 3.2191,-1.636028 5.64445,-2.815194 2.42535,-1.179167 6.50783,-3.170753 9.07221,-4.425753 2.56438,-1.254996 4.7075,-2.231905 4.7625,-2.170902 0.055,0.061 0.60078,-0.245657 1.21281,-0.681465 0.61204,-0.435807 1.22809,-0.792377 1.36903,-0.792377 0.14093,0 2.33895,-1.053652 4.88442,-2.34145 5.4925,-2.778718 9.86441,-4.94514 15.38792,-7.625253 2.23132,-1.082675 7.31132,-3.550955 11.28889,-5.485063 3.97757,-1.934107 9.37507,-4.546677 11.99444,-5.805706 2.61938,-1.259028 7.3025,-3.517 10.40695,-5.01771 3.10444,-1.500713 7.31132,-3.516862 9.34861,-4.480337 8.56061,-4.048467 9.84,-4.6776248 9.73187,-4.7857518 -0.14171,-0.141707 -32.46011,-0.08968 -46.24437,0.07444 -5.62681,0.067 -20.21156,0.1369408 -32.41054,0.1554298 -18.37475,0.02787 -22.11344,0.113845 -21.79195,0.50122 0.30218,0.364112 0.097,0.612701 -0.92694,1.123251 -0.72326,0.36061 -1.39439,0.669033 -1.49141,0.685377 -0.097,0.01633 -3.35139,1.598552 -7.23194,3.516005 -3.88056,1.917457 -10.38931,5.12994 -14.46389,7.13885 -4.07458,2.008911 -7.71844,3.889996 -8.09745,4.180188 -0.37901,0.290191 -0.80752,0.527621 -0.95225,0.527621 -0.14472,0 -1.89837,0.764505 -3.897,1.698897 -1.99862,0.934392 -4.18948,1.917566 -4.86858,2.18483 -0.6791,0.267268 -1.33758,0.636845 -1.46329,0.821288 -0.12571,0.184439 -0.76071,0.529198 -1.41111,0.766131 -0.6504,0.236932 -1.46036,0.548583 -1.7999,0.692563 -0.33977,0.14407 -0.61737,0.110271 -0.61737,-0.07517 0,-0.185318 0.67469,-0.634481 1.49931,-0.998146 0.82462,-0.363661 1.61594,-0.824332 1.75849,-1.023715 0.14255,-0.199383 0.26161,-0.233295 0.26458,-0.07536 0.003,0.157938 0.60071,-0.03288 1.32832,-0.424071 0.7276,-0.391178 7.51417,-3.744186 15.08125,-7.451136 7.56708,-3.706946 13.99646,-6.880122 14.2875,-7.051505 0.99183,-0.584041 10.68711,-5.349304 11.55458,-5.679119 0.57057,-0.216927 0.79424,-0.511366 0.65806,-0.866246 -0.11346,-0.2956908 -0.0105,-0.5989348 0.22872,-0.6738798 0.41216,-0.129095 67.81252,-0.527321 91.01073,-0.537721 9.28938,-0.0042 10.84791,-0.07911 10.84791,-0.521621 0,-0.284215 0.35719,-0.707079 0.79375,-0.939701 0.71258,-0.379684 0.74553,-0.364493 0.32241,0.148527 -0.53573,0.649555 -0.27531,1.30793 0.51735,1.30793 0.47427,0 0.47476,0.0588 0.005,0.529167 -0.29104,0.291041 -0.69229,0.5291658 -0.89164,0.5291658 -0.19932,0 -1.1235,0.436563 -2.05366,0.970139 -0.93017,0.533577 -2.96122,1.562718 -4.51344,2.286985 -5.25579,2.452338 -12.67796,5.979784 -17.72141,8.42222 -2.76175,1.337472 -5.18269,2.431767 -5.37986,2.431767 -0.19713,0 -0.35846,0.15875 -0.35846,0.352778 0,0.194028 -0.23241,0.352778 -0.51643,0.352778 -0.28405,0 -1.75249,0.625016 -3.26319,1.388928 -1.51074,0.763912 -4.17552,2.095052 -5.92177,2.958088 -1.74625,0.863039 -3.81,1.888818 -4.58611,2.279512 -0.77611,0.390694 -2.68111,1.303789 -4.23333,2.0291 -3.59205,1.678467 -13.91536,6.650824 -16.22778,7.816314 -0.97014,0.488964 -3.11326,1.573442 -4.7625,2.409945 -1.64924,0.836506 -4.18924,2.079949 -5.64444,2.763209 -1.45521,0.683257 -3.04271,1.479656 -3.52778,1.769773 -0.48507,0.290118 -3.5807,1.826627 -6.87917,3.414466 -3.29847,1.587839 -9.01347,4.359458 -12.7,6.159154 -12.87776,6.286687 -14.33907,6.944205 -15.0311,6.763233 -0.67617,-0.176823 -0.68286,0.242874 -0.48698,30.569905 0.10923,16.912061 0.26441,35.194201 0.34485,40.626981 0.0804,5.43278 0.15389,14.99219 0.16322,21.24313 l 0.017,11.36535 3.10891,-1.48758 c 1.7099,-0.81816 3.65458,-1.70912 4.32152,-1.97991 0.66694,-0.27078 1.49044,-0.73195 1.82999,-1.02481 0.33954,-0.29286 0.61736,-0.42705 0.61736,-0.2982 0,0.12886 1.54781,-0.54089 3.43958,-1.48834 1.89177,-0.94744 4.31271,-2.09179 5.37986,-2.54301 1.06715,-0.45122 2.65465,-1.25296 3.52778,-1.78163 0.87312,-0.52868 2.06375,-1.07685 2.64583,-1.21816 0.58209,-0.14131 1.43693,-0.55023 1.89966,-0.90869 0.46273,-0.35847 0.9921,-0.65176 1.17639,-0.65176 0.18429,0 2.66319,-1.14973 5.50866,-2.55495 2.84551,-1.40523 5.253,-2.56282 5.35002,-2.57243 0.097,-0.01 0.68446,-0.28863 1.30538,-0.62005 0.62096,-0.33141 1.37502,-0.60257 1.67569,-0.60257 0.30071,0 0.5467,-0.15875 0.5467,-0.35278 0,-0.19403 0.11907,-0.3224 0.26459,-0.28528 0.22394,0.0571 3.26182,-1.38651 14.1993,-6.74776 0.87313,-0.42798 2.7704,-1.40188 4.21616,-2.16422 1.44575,-0.76234 2.77061,-1.38607 2.94414,-1.38607 0.17353,0 0.73688,-0.2949 1.2519,-0.65533 0.51502,-0.36043 1.96829,-1.10823 3.22947,-1.66178 1.26118,-0.55355 2.37243,-1.10127 2.46944,-1.21716 0.097,-0.1159 1.28764,-0.73952 2.64584,-1.38584 1.35819,-0.64631 5.72382,-2.759 9.70139,-4.69485 10.55059,-5.1349 16.91788,-8.1951 18.52083,-8.90135 0.77611,-0.34195 3.74968,-1.75286 6.60788,-3.13535 l 5.19675,-2.51362 -0.21812,-38.276391 c -0.37574,-65.9338538 -0.38199,-64.798845 0.34982,-63.588189 0.088,0.145521 0.27266,20.584583 0.41042,45.420138 0.13776,24.835551 0.27361,47.774922 0.30187,50.976382 l 0.0514,5.82084 -5.64444,2.78305 c -3.10445,1.53067 -6.59695,3.22207 -7.76111,3.75865 -4.62841,2.13329 -14.91171,7.14846 -31.22084,15.22642 -9.41034,4.66097 -19.17347,9.46999 -21.69583,10.68672 -9.24514,4.45962 -15.07243,7.23266 -15.19876,7.23266 -0.0712,0 -2.39564,1.08361 -5.16537,2.40803 -2.76973,1.32442 -5.71056,2.70435 -6.53518,3.0665 -0.82461,0.36216 -1.4993,0.78667 -1.4993,0.94336 0,0.15668 -0.16858,0.28488 -0.37463,0.28488 -0.41567,0 -2.55045,0.95343 -8.09204,3.61405 -7.12033,3.4186 -10.23736,4.85262 -10.54778,4.85262 -0.17207,0 -0.40422,0.23812 -0.51591,0.52917 -0.26419,0.68848 -0.93075,0.68448 -0.93075,-0.006 0,-0.46133 -0.61763,-0.50465 -4.49792,-0.31548 -2.47386,0.12059 -4.81542,0.27006 -5.20347,0.33215 -0.38806,0.0621 -0.82462,0.12468 -0.97014,0.13909 -0.37436,0.0371 -0.31948,3.97936 0.0638,4.58498 0.48082,0.75969 -0.37062,1.32096 -5.12294,3.37701 -1.18178,0.51129 -2.39608,0.96593 -2.69844,1.0103 -0.30235,0.0444 -0.76419,0.24556 -1.0263,0.44707 -0.26211,0.20151 -1.03218,0.58614 -1.71128,0.85473 -0.6791,0.26858 -2.06966,1.07155 -3.09014,1.78437 -1.02047,0.71282 -2.40397,1.39895 -3.07443,1.52473 -0.67046,0.12578 -1.29454,0.35089 -1.38685,0.50025 -0.23029,0.37262 -0.25968,3.7348 -0.0714,8.16778 0.46022,10.83531 0.57026,16.88983 0.30989,17.05075 -0.1604,0.0991 -0.28717,-0.8392 -0.28172,-2.08518 0.005,-1.24599 -0.0695,-2.2657 -0.16647,-2.26603 -0.097,-3.2e-4 -0.19965,-0.99254 -0.22809,-2.20492 -0.0284,-1.21239 -0.0884,-3.63309 -0.13327,-5.37934 -0.0449,-1.74625 0.0451,-3.47886 0.19984,-3.85023 0.19882,-0.47705 0.16028,-0.60037 -0.13131,-0.42016 -0.41088,0.25394 -0.61727,-2.7887 -0.43158,-6.3627 0.0417,-0.80347 -0.056,-1.54168 -0.21721,-1.64046 -0.16121,-0.0988 -1.79497,0.5586 -3.63058,1.46086 l -3.33748,1.64046 0.0764,2.82223 c 0.10607,3.91817 0.45024,13.37518 0.64835,17.81527 0.30429,6.81985 0.30683,7.22859 0.0499,8.0257 -0.14072,0.43656 -0.1148,0.79375 0.0576,0.79375 0.1724,0 0.33291,2.54856 0.35669,5.66347 0.0238,3.11492 0.19251,8.47273 0.37495,11.90625 0.424,7.97987 0.42913,7.34641 -0.0555,6.86179 -0.22223,-0.22223 -0.45684,-1.32554 -0.52137,-2.45181 -0.27667,-4.82901 -0.48691,-11.10564 -0.65943,-19.68665 -0.10142,-5.04472 -0.28556,-10.99784 -0.4092,-13.22916 -0.34734,-6.26813 -0.41076,-7.93352 -0.49404,-12.97344 -0.0426,-2.57574 -0.21496,-4.76818 -0.3831,-4.8721 -0.16813,-0.10391 -1.49,0.38842 -2.93748,1.09407 -1.44749,0.70565 -2.75675,1.29926 -2.90948,1.31912 -0.15273,0.0199 -0.50025,0.25868 -0.77228,0.53071 -0.40539,0.40539 -0.45221,1.6188 -0.25961,6.72797 0.12923,3.42837 0.32882,9.88464 0.44352,14.34728 0.21409,8.33001 0.45863,9.70139 1.72992,9.70139 0.60034,0 0.69564,0.556 0.15281,0.89149 -0.20253,0.12517 -0.62369,0.0156 -0.93593,-0.24356 -0.51894,-0.43069 -0.54737,-0.0471 -0.33104,4.46754 0.50343,10.50617 0.63079,21.69564 0.24694,21.69564 -0.22284,0 -0.39916,-0.96858 -0.43348,-2.38125 -0.0318,-1.30969 -0.092,-3.09563 -0.13375,-3.96875 -0.0417,-0.87313 -0.19566,-5.95313 -0.34203,-11.28889 -0.14638,-5.33576 -0.33622,-9.77944 -0.42188,-9.87484 -0.0857,-0.0954 -0.29171,0.0634 -0.45791,0.35278 -0.73893,1.28687 -1.3316,1.8503 -1.70414,1.62006 -0.43227,-0.26716 0.1612,-1.45342 1.46637,-2.93109 0.62835,-0.7114 0.6693,-1.13959 0.47243,-4.93889 -0.11856,-2.28798 -0.30279,-7.17622 -0.4094,-10.86274 -0.10662,-3.68653 -0.2839,-8.01848 -0.39396,-9.62656 -0.22808,-3.33235 -0.19981,-3.31951 -3.29312,-1.49563 -0.90203,0.53186 -2.26693,1.16856 -3.0331,1.4149 -1.67072,0.53715 -2.70139,1.36527 -2.36886,1.90331 0.13325,0.2156 0.27448,1.66283 0.31384,3.21605 0.4943,19.50596 0.48924,19.46383 2.47131,20.57305 1.11704,0.62513 0.24055,0.87818 -0.96267,0.27793 -0.62567,-0.31212 -1.21765,-0.48744 -1.31551,-0.38958 -0.0978,0.0978 0.005,0.17792 0.2295,0.17792 0.22408,0 0.37461,0.27781 0.33452,0.61736 -0.0401,0.33955 0.0408,3.39548 0.17966,6.79097 0.1389,3.39549 0.3391,9.66611 0.44489,13.93472 0.1058,4.26861 0.27951,8.20653 0.38603,8.75094 0.10652,0.5444 0.0731,1.97315 -0.0742,3.175 -0.24578,2.00516 -0.28878,2.0887 -0.52198,1.01408 -0.23007,-1.06015 -0.35609,-3.52251 -0.87889,-17.17335 -0.0892,-2.32834 -0.23997,-6.13834 -0.33511,-8.46667 -0.0951,-2.32833 -0.17401,-5.06677 -0.17526,-6.08542 -0.002,-1.61613 -0.0922,-1.85208 -0.70784,-1.85208 -0.87742,0 -0.88042,-0.25684 -0.0182,-1.56475 0.70233,-1.06542 0.73132,-3.25475 0.21053,-15.89775 -0.0639,-1.55222 -0.13336,-3.89701 -0.15427,-5.21064 l -0.038,-2.38843 -1.44799,0.7387 c -0.79639,0.4063 -1.34265,0.56827 -1.2139,0.35995 0.15776,-0.25526 -0.52739,-0.37876 -2.10126,-0.37876 h -2.33535 l 0.20563,6.26181 c 0.1131,3.44399 0.2776,8.56368 0.36555,11.37708 0.088,2.8134 0.26588,7.85371 0.39538,11.20069 0.17279,4.46596 0.12816,6.08542 -0.16769,6.08542 -0.24074,0 -0.41757,-0.67506 -0.43894,-1.67569 -0.0197,-0.92164 -0.0815,-2.23132 -0.13737,-2.91042 -0.0559,-0.6791 -0.20088,-4.25097 -0.32223,-7.9375 -0.24109,-7.32382 -0.62989,-19.03142 -0.69702,-20.98925 -0.0419,-1.22203 -0.0556,-1.23235 -1.45342,-1.09262 -1.53354,0.1533 -2.82461,0.26924 -3.79236,0.34055 -0.84992,0.0626 -0.88202,3.40165 -0.0416,4.33027 0.53917,0.59578 0.51435,0.6595 -0.39112,1.00376 -0.6988,0.26569 -0.87075,0.48822 -0.62023,0.80272 0.19063,0.23932 0.43405,3.674 0.54093,7.63263 l 0.19433,7.1975 0.99671,0.85649 c 0.9741,0.83705 0.79732,0.8713 -0.91324,0.17693 -0.27437,-0.11137 -0.40559,-0.0516 -0.29161,0.13282 0.40622,0.65727 0.70686,16.01237 0.31351,16.01237 -0.39934,0 -0.83932,-1.83503 -0.71897,-2.99862 0.0401,-0.38805 0.0478,-3.53488 0.0171,-6.99296 l -0.0559,-6.28741 -0.94238,0.74128 c -0.68118,0.53581 -1.04786,0.63415 -1.32292,0.35479 -0.2735,-0.27777 -0.0472,-0.68586 0.80468,-1.45082 l 1.18522,-1.06435 -0.0949,-4.46832 c -0.0522,-2.45757 -0.11854,-5.61529 -0.14748,-7.01715 -0.0289,-1.40186 -0.14618,-2.6424 -0.26054,-2.75676 -0.11436,-0.11436 -1.82353,0.63519 -3.79817,1.66566 l -3.59025,1.87359 0.21879,3.17622 c 0.19753,2.86756 0.40987,7.70914 0.67769,15.45138 0.0523,1.51258 -0.0367,2.83164 -0.19788,2.93124 -0.16116,0.0996 -0.29301,0.33984 -0.29301,0.53386 0,0.19403 0.15875,0.25467 0.35278,0.13475 0.22612,-0.13974 0.37183,1.21434 0.40585,3.77154 0.0292,2.19427 0.0897,4.94208 0.13436,6.10624 0.14128,3.67859 0.61794,18.96312 0.65735,21.07847 0.0208,1.11566 -0.0984,2.02848 -0.26485,2.02848 -0.16646,0 -0.22097,0.21283 -0.12115,0.47296 0.0998,0.26013 0.0549,0.6778 -0.0998,0.92815 -0.33839,0.54753 -0.61785,-1.28761 -0.69685,-4.57611 -0.21456,-8.93106 -0.15279,-14.46451 0.1615,-14.46931 0.19403,-0.003 0.15803,-0.12911 -0.08,-0.28033 -0.31,-0.19694 -0.48516,-2.42235 -0.61737,-7.8439 -0.10153,-4.16293 -0.26804,-9.71209 -0.37004,-12.33146 -0.33942,-8.71645 -0.35336,-12.28582 -0.0473,-12.09663 0.16671,0.10303 0.1105,-0.17257 -0.12492,-0.61246 -0.24303,-0.4541 -0.35321,-1.4636 -0.25492,-2.33563 0.13399,-1.1887 0.057,-1.53584 -0.34058,-1.53584 -0.68873,0 -5.82433,2.74221 -6.31369,3.37127 -0.21321,0.27408 -0.47564,0.41034 -0.58317,0.30281 -0.10753,-0.10754 -0.88559,0.16557 -1.72901,0.6069 -0.84342,0.44133 -1.61287,0.82308 -1.70988,0.84833 -0.097,0.0253 -0.87053,0.37289 -1.71892,0.77251 l -1.54253,0.7266 0.0519,4.00593 c 0.0285,2.20326 0.14309,5.3553 0.25454,7.00454 0.18209,2.69446 0.2975,3.07591 1.13785,3.76074 0.51436,0.41917 0.81712,0.88122 0.67279,1.02677 -0.14434,0.14555 -0.55371,10e-4 -0.90973,-0.32115 -0.94653,-0.85661 -1.17458,-0.72542 -0.97471,0.56072 0.30231,1.94542 0.60123,31.90298 0.32887,32.95961 l -0.25654,0.99525 -0.21417,-1.05833 c -0.1178,-0.58208 -0.256091,-6.29708 -0.307321,-12.7 -0.106,-13.24855 -0.30162,-20.30133 -0.57052,-20.57024 -0.10167,-0.10167 -0.18485,0.0797 -0.18485,0.40311 0,0.32338 -0.23813,0.58796 -0.52917,0.58796 -0.71085,0 -0.66639,-0.46394 0.17668,-1.84355 0.61934,-1.0135 0.70425,-1.76035 0.69281,-6.09395 -0.007,-2.71638 -0.10282,-5.66049 -0.21256,-6.54246 l -0.19953,-1.60358 -6.82845,3.4117 c -3.75565,1.87643 -6.92661,3.31354 -7.04658,3.19356 -0.11998,-0.11997 -0.12906,1.8445 -0.0202,4.36549 0.10887,2.521 0.28038,8.86988 0.38114,14.10863 0.10075,5.23875 0.26739,12.21308 0.3703,15.49851 0.18058,5.76522 -0.27919,11.13621 -0.9533,11.13621 -0.1501,0 -0.18153,0.23812 -0.0698,0.52917 0.11169,0.29104 0.0372,0.52916 -0.16545,0.52916 -0.22691,0 -0.41086,-1.4786 -0.47872,-3.84787 z m -171.20742,-1.6251 c 3.10444,-0.12661 6.43819,-0.28462 7.40833,-0.35115 0.97014,-0.0665 4.70076,-0.21518 8.29028,-0.33034 3.58951,-0.11516 7.71701,-0.28612 9.17222,-0.37991 1.45521,-0.0938 6.93208,-0.32773 12.17083,-0.51986 5.23875,-0.19213 11.58875,-0.42718 14.11112,-0.52233 2.52236,-0.0951 7.44361,-0.26334 10.93611,-0.37375 3.4925,-0.11041 6.985,-0.26119 7.76111,-0.33507 0.77611,-0.0739 4.98298,-0.24684 9.3486102,-0.38435 4.36562,-0.13752 8.49313001,-0.28462 9.17222,-0.32691 0.6791,-0.0423 2.1594,-0.0991 3.28956,-0.12623 l 2.05484,-0.0494 -0.19815,-11.55347 c -0.10898,-6.35441 -0.29621,-22.50722 -0.41607,-35.89514 -0.11986,-13.38792 -0.27377,-24.4344 -0.34203,-24.54773 -0.0683,-0.11334 -0.14191,-5.98709 -0.16365,-13.05278 -0.0217,-7.06569 -0.13293,-14.32981 -0.24708,-16.14249 l -0.20756,-3.29578 -5.14811999,0.20428 c -2.83147001,0.11235 -8.00563001,0.28672 -11.49813021,0.38748 -24.92433,0.71911 -30.87888,0.91412 -32.27916,1.05708 -0.87313,0.0891 -6.985,0.26457 -13.58195,0.38982 -6.59694,0.12526 -13.02632,0.27335 -14.2875,0.32908 -3.14737,0.13909 -16.83005,0.58563 -20.28472,0.66201 l -2.82223,0.0624 v 20.09415 c 0,19.65435 0.51281,72.86335 0.73255,76.00943 0.061,0.87313 0.11955,3.38414 0.13014,5.58003 0.0175,3.62914 0.0754,3.97653 0.63662,3.8168 0.33955,-0.0966 3.15736,-0.2793 6.26181,-0.40591 z m 99.15429,-6.8354 c 4.84758,-2.39273 10.39757,-5.00217 10.91238,-5.13067 0.19402,-0.0484 4.0834,-1.91848 8.64305,-4.15566 4.55966,-2.23718 9.08403,-4.4204 10.05417,-4.8516 0.97014,-0.43119 3.19264,-1.4709 4.93889,-2.31047 1.74625,-0.83955 3.41312,-1.57868 3.70417,-1.64249 0.29104,-0.0638 0.60854,-0.20607 0.70555,-0.31614 0.097,-0.11008 2.71639,-1.35633 5.82083,-2.76946 3.10445,-1.41312 7.0732,-3.25856 8.81945,-4.10096 1.74625,-0.84241 3.57187,-1.69921 4.05694,-1.90401 0.48507,-0.20481 1.12007,-0.52239 1.41111,-0.70574 0.58829,-0.37062 9.38231,-4.59208 12.2266,-5.86922 1.0008,-0.44939 1.92298,-0.98427 2.04929,-1.18864 0.1263,-0.20436 0.60392,-0.37157 1.06137,-0.37157 0.45745,0 0.88464,-0.13233 0.94932,-0.29407 0.13479,-0.33708 5.81961,-3.23593 6.69442,-3.41367 0.31878,-0.0648 1.74744,-0.77953 3.17479,-1.58836 1.42735,-0.80883 3.895641,-2.09127 5.485081,-2.84988 1.58943,-0.75861 2.98796,-1.53798 3.10783,-1.73193 0.11987,-0.19395 0.43145,-0.35264 0.6924,-0.35264 0.26095,0 1.40252,-0.52211 2.53682,-1.16025 1.1343,-0.63813 2.61799,-1.38602 3.29708,-1.66197 0.6791,-0.27595 2.14754,-1.01522 3.2632,-1.64282 1.11566,-0.6276 2.02847,-1.06257 2.02847,-0.9666 0,0.13902 4.36423,-2.13804 4.90097,-2.55709 0.0762,-0.0595 -0.0219,-0.31038 -0.21794,-0.55761 -0.21866,-0.27578 -0.44158,-6.1076 -0.57678,-15.08977 -0.1212,-8.05215 -0.36868,-17.65653 -0.54994,-21.34306 -0.18126,-3.68652 -0.42651,-11.94152 -0.54501,-18.34444 -0.11849,-6.40292 -0.28359,-12.83229 -0.36687,-14.2875 -0.0833,-1.45521 -0.2507,-6.13833 -0.37203,-10.40695 -0.12133,-4.26861 -0.26792,-8.39611 -0.32576,-9.17222 -0.0578,-0.77611 -0.15541,-4.26861 -0.21684,-7.76111 -0.087,-4.9489 -0.0131,-6.350001 0.33528,-6.350001 0.33518,0 0.47908,1.323341 0.5754,5.291671 0.0706,2.91042 0.45182,15.68979 0.84706,28.39861 0.77491,24.91719 0.99492,32.58452 1.28052,44.62639 0.37547,15.83103 0.49776,19.25193 0.69987,19.57897 0.11387,0.18423 0.92648,0.25034 1.80582,0.14693 0.87934,-0.10342 2.26154,-0.23951 3.07155,-0.30242 0.81002,-0.0629 2.34588,-0.22954 3.41303,-0.37028 l 1.94028,-0.25591 -0.0679,-11.51531 c -0.2521,-42.7516 -0.7807,-90.545721 -1.01393,-91.675631 -0.15587,-0.75517 -0.28038,-0.77908 -3.2443,-0.6229 -3.01274,0.15876 -15.26606,0.65337 -26.18915,1.05713 -3.00743,0.11117 -6.579301,0.26941 -7.937501,0.35165 -1.35819,0.0822 -4.77132,0.23672 -7.58472,0.34329 -2.8134,0.10657 -7.09965,0.26998 -9.525,0.36313 -5.83557,0.22411 -13.65798,0.48535 -20.81389,0.69509 -18.4797,0.54165 -21.86036,0.6459 -23.45972,0.72346 -0.97014,0.0471 -2.27983,0.10399 -2.91042,0.12654 l -1.14652,0.041 0.005,2.38125 c 0.005,2.385121 0.34416,3.524851 0.93847,3.157541 0.17447,-0.10782 2.13691,-0.28817 4.36098,-0.40076 7.69538,-0.3896 11.82596,-0.5755 16.71249,-0.75216 10.06642,-0.363941 12.93882,-0.477831 21.37432,-0.847461 4.75368,-0.2083 10.70681,-0.52651 13.22916,-0.70712 2.52237,-0.18062 7.04674,-0.41769 10.05417,-0.52681 3.00743,-0.10912 6.420561,-0.27336 7.584721,-0.36497 1.16417,-0.0916 4.97417,-0.25212 8.46667,-0.35668 3.4925,-0.10456 6.94531,-0.2793 7.67292,-0.38831 1.00112,-0.14999 1.32291,-0.0763 1.32291,0.30318 0,0.27575 -0.19843,0.50703 -0.44097,0.51394 -0.77625,0.0221 -9.51387,0.46785 -12.43541,0.63437 -1.55223,0.0885 -4.56848,0.24163 -6.70278,0.34035 -8.675451,0.40127 -12.129471,0.56812 -14.816671,0.71573 -8.16055,0.44826 -14.26063,0.700101 -34.04305,1.405491 -6.27442,0.22373 -14.86564,0.57204 -17.63889,0.71513 -3.70428,0.19114 -11.85869,0.54446 -15.88859,0.68844 -2.66112,0.0951 -3.31902,0.26167 -5.64445,1.4293 -1.44773,0.72692 -2.74267,1.49528 -2.87764,1.70748 -0.13497,0.21219 -0.35085,0.28036 -0.47973,0.15148 -0.12887,-0.12888 -1.6059398,0.45299 -3.2823698,1.29304 -1.67643,0.84005 -5.7468,2.83766 -9.04528,4.43914 -3.29847,1.60147 -9.9659702,4.85143 -14.8166602,7.22213 -4.8507,2.3707 -10.16882,4.96822 -11.81806,5.77227 -1.64924,0.80405 -4.14346,2.07209 -5.54271,2.81787 -1.39926,0.74578 -3.46301,1.78281 -4.58611,2.30451 -1.12311,0.5217 -2.28014,1.09473 -2.57118,1.27341 -0.29104,0.17868 -5.60917,2.80892 -11.81806,5.84498 -15.53849,7.59811 -39.39797,19.47538 -40.04028,19.93209 -0.38123,0.27107 0.605,0.32171 3.52778,0.18114 2.23132,-0.10732 7.47007,-0.28061 11.64167,-0.3851 4.1716,-0.10449 9.33097,-0.25938 11.46528,-0.34421 2.1343,-0.0848 7.29368,-0.24461 11.46528,-0.35508 4.17159,-0.11047 8.69597,-0.26786 10.05416,-0.34975 1.3582,-0.0819 5.32695,-0.23683 8.81945,-0.34429 8.19701,-0.25222 26.4040002,-0.82534 34.7404402,-1.09356 3.58502,-0.11535 6.64096,-0.28558 6.79098,-0.37829 0.15001,-0.0927 0.27275,-0.41677 0.27275,-0.72011 0,-0.40791 0.1175,-0.45403 0.4512,-0.17708 0.32934,0.27333 1.02012,0.10146 2.55764,-0.63637 1.15854,-0.55596 3.5351798,-1.67894 5.2814298,-2.49551 5.51811,-2.58036 9.36863,-4.40394 14.76203,-6.99118 2.88036,-1.38173 5.28554,-2.51224 5.34483,-2.51224 0.16415,0 5.76072,-2.61971 11.39241,-5.33271 2.77252,-1.33562 5.09597,-2.4284 5.16325,-2.4284 0.0673,0 2.32322,-1.04788 5.01323,-2.32863 2.69001,-1.28074 6.08155,-2.88771 7.53676,-3.57104 5.04669,-2.36979 10.79276,-5.15298 17.28611,-8.37279 3.58951,-1.7799 7.08201,-3.45909 7.76111,-3.73152 0.67909,-0.27244 2.31225,-1.08669 3.62924,-1.80945 1.31698,-0.72276 2.74573,-1.42153 3.175,-1.55281 0.42926,-0.13128 3.8761,-1.74234 7.659651,-3.58012 3.78354,-1.83778 8.06979,-3.89663 9.525,-4.57522 1.4552,-0.67858 3.39997,-1.61633 4.32171,-2.08388 0.92173,-0.46755 1.84391,-0.850091 2.04929,-0.850091 0.7041,0 -0.0375,0.664291 -1.5283,1.368941 -0.82022,0.38769 -3.71382,1.77933 -6.4302,3.09252 -2.71639,1.3132 -5.01827,2.40566 -5.11528,2.42769 -0.097,0.0221 -2.08139,0.97416 -4.40972,2.11583 -2.328341,1.14167 -4.352401,2.04322 -4.497921,2.00345 -0.14552,-0.0398 -0.26458,0.0864 -0.26458,0.28045 0,0.19403 -0.3175,0.35278 -0.70556,0.35278 -0.38806,0 -0.70556,0.14806 -0.70556,0.32901 0,0.18095 -0.35718,0.43675 -0.79375,0.56844 -0.43656,0.13169 -4.1275,1.86762 -8.20208,3.85764 -4.07458,1.99001 -8.91645,4.33505 -10.75972,5.21121 -1.84326,0.87615 -4.93889,2.3475 -6.87916,3.26966 -1.94028,0.92216 -4.95653,2.34922 -6.70278,3.17125 -1.74625,0.82203 -4.84276,2.29022 -6.88113,3.26265 -3.50645,1.6728 -6.31004,2.95807 -6.70082,3.07192 -0.22308,0.065 -8.18824,3.91838 -13.01049,6.29423 -2.01403,0.99228 -3.84904,1.83162 -4.0778,1.86519 -0.43095,0.0633 -3.11975,1.33853 -16.20809,7.68736 -4.24601,2.05963 -7.8575698,3.74478 -8.0256998,3.74478 -0.16813,0 -0.31305,0.27781 -0.32204,0.61736 -0.0286,1.0821 0.0691,10.92599 0.19358,19.49097 0.0663,4.55965 0.22207,17.1009 0.34626,27.86944 0.12419,10.76854 0.28927,22.59542 0.36686,26.28195 0.0776,3.68652 0.15665,11.90184 0.17568,18.25625 0.0191,6.35441 0.15483,11.55347 0.30177,11.55347 0.14694,0 2.16148,-0.93502 4.4767598,-2.07782 z m 44.83784,-69.77126 c -0.12935,-0.12935 -0.22444,-0.64528 -0.21131,-1.14652 0.0238,-0.90962 0.0246,-0.90985 0.40669,-0.1176 0.5379,1.11533 2.03888,1.09567 2.03888,-0.0267 0,-0.80444 -1.30033,-2.35455 -1.97515,-2.35455 -0.47656,0 -1.55263,-1.90262 -1.55263,-2.74526 0,-0.85998 0.82339,-1.58588 1.62094,-1.42901 0.7333,0.14424 1.45454,1.21639 1.07415,1.59678 -0.15321,0.15321 -0.43516,-0.001 -0.62656,-0.34328 -0.1914,-0.34201 -0.49699,-0.52976 -0.6791,-0.41722 -0.71533,0.44211 -0.26643,1.56603 1.03815,2.59929 1.46455,1.15993 2.6919,3.28704 2.37426,4.11478 -0.1992,0.51913 -3.0404,0.73721 -3.50832,0.26929 z m 6.97886,-2.14606 c -0.14837,-0.33955 -0.23777,-0.8158 -0.19866,-1.05833 0.0391,-0.24254 -0.0946,-0.44098 -0.29714,-0.44098 -0.20253,0 -0.36824,0.24977 -0.36824,0.55504 0,0.33936 -0.23989,0.50817 -0.61737,0.43443 -0.4575,-0.0894 -0.58667,-0.39296 -0.49882,-1.1724 0.13861,-1.22987 0.54414,-1.75811 1.09049,-1.42045 0.44231,0.27337 1.78958,2.79781 1.78958,3.35322 0,0.59042 -0.6061,0.42167 -0.89984,-0.25053 z M 121.42722,98.493519 c 0.65718,-0.66323 1.34812,-0.78872 1.34812,-0.24484 0,0.19402 -0.14577,0.35277 -0.32392,0.35277 -0.17816,0 -0.61473,0.11018 -0.97014,0.24485 -0.60529,0.22933 -0.60871,0.20698 -0.0541,-0.35278 z m 14.38225,97.428241 c 0.87087,-0.30359 1.03127,-0.48047 0.67001,-0.73884 -0.35581,-0.25447 -0.31659,-0.28852 0.15633,-0.13575 0.34722,0.11218 0.90285,0.0562 1.23473,-0.12446 0.51922,-0.2826 3.72092,-1.80689 12.42147,-5.91371 1.06715,-0.50372 2.1784,-1.05217 2.46944,-1.21879 0.29104,-0.16662 1.08479,-0.54173 1.76389,-0.83357 0.6791,-0.29185 1.47285,-0.68872 1.76389,-0.88195 0.29104,-0.19322 1.08479,-0.6011 1.76389,-0.90641 0.6791,-0.3053 2.20992,-1.01649 3.40182,-1.5804 1.19191,-0.56393 2.30678,-1.02532 2.47749,-1.02532 0.17071,0 1.15406,-0.55562 2.18522,-1.23472 1.03116,-0.6791 1.95018,-1.23472 2.04227,-1.23472 0.2472,0 3.64996,-1.69772 4.97445,-2.48187 0.63059,-0.37334 1.14653,-0.57231 1.14653,-0.44215 0,0.13016 0.21404,-0.0561 0.47565,-0.41384 0.2616,-0.35777 0.6503,-0.54254 0.86378,-0.41061 0.21347,0.13193 1.21976,-0.16131 2.23621,-0.65166 1.01644,-0.49035 2.0691,-0.89154 2.33924,-0.89154 0.34733,0 0.43477,-0.2841 0.29857,-0.97014 -0.10594,-0.53357 -0.27887,-4.14514 -0.3843,-8.02569 -0.10543,-3.88056 -0.2708,-9.75431 -0.36749,-13.05278 -0.0967,-3.29847 -0.25159,-10.5216 -0.34424,-16.05139 -0.19952,-11.90822 -0.46773,-23.70143 -0.72209,-31.75 -0.10117,-3.20146 -0.33946,-11.841801 -0.52953,-19.200761 -0.19006,-7.35896 -0.40328,-13.43764 -0.47382,-13.50818 -0.0705,-0.0705 -4.6849,2.10075 -10.25414,4.82507 -5.56925,2.72433 -10.20239,4.95332 -10.29587,4.95332 -0.0935,0 -1.47022,0.61808 -3.05944,1.37352 -4.0623,1.93102 -5.40712,2.50703 -5.85321,2.50703 -0.21321,0 -0.38766,0.15875 -0.38766,0.35278 0,0.19403 -0.1641,0.35278 -0.36467,0.35278 -0.20057,0 -2.80881,1.19032 -5.7961,2.64516 -6.33016,3.08286 -7.15887,3.4237 -7.39506,3.04153 -0.18381,-0.2974 0.19893,-0.50083 7.02944,-3.73615 3.95486,-1.87324 4.82396,-2.30458 6.17361,-3.064 0.51393,-0.28918 3.87883,-1.77955 4.23334,-1.87502 0.25923,-0.0698 5.1671,-2.40749 10.40694,-4.95696 2.52236,-1.22726 7.24518,-3.50306 10.49514,-5.05734 3.24997,-1.55427 5.90903,-2.93767 5.90903,-3.07421 0,-0.21915 -8.57671,-0.0331 -18.34445,0.39789 l -3.35138,0.14788 -0.10797,1.80696 c -0.0745,1.24624 0.0585,1.99091 0.42855,2.3998 0.48474,0.53563 0.4703,0.59784 -0.14967,0.64454 -0.90011,0.0678 -0.99638,-0.13561 -1.09585,-2.3155 -0.0462,-1.01212 -0.29605,-2.01623 -0.55526,-2.23136 -0.29167,-0.24206 -1.32853,-0.32233 -2.72044,-0.2106 -1.23702,0.0993 -2.46481,0.0439 -2.72842,-0.12314 -0.31334,-0.19854 0.0228,-0.30555 0.97079,-0.30908 0.79754,-0.003 2.1866,-0.10636 3.08681,-0.22974 l 1.63673,-0.22434 v -2.18631 c 0,-1.20247 -0.0655,-2.25245 -0.1455,-2.3333 -0.08,-0.08084 -1.6175,-0.06761 -3.41661,0.0294 l -3.27111,0.17639 0.0711,2.29305 c 0.0391,1.26118 0.0594,2.53118 0.0451,2.82223 -0.0853,1.73447 -0.002,4.4723 0.15469,5.09735 0.19598,0.78083 -0.3053,1.91086 -0.68099,1.53517 -0.12441,-0.12441 -0.26827,-1.31044 -0.31969,-2.63562 -0.0514,-1.32517 -0.11701,-2.70396 -0.14575,-3.06398 -0.0495,-0.61987 -0.3748,-0.64243 -6.13548,-0.42554 -3.34576,0.12597 -6.22293,0.36875 -6.3937,0.53953 -0.17077,0.17077 -0.24403,3.26182 -0.1628,6.869 0.10055,4.46505 0.0301,6.51929 -0.22088,6.43565 -0.23605,-0.0787 -0.38449,-2.43258 -0.41283,-6.54651 -0.0243,-3.53301 -0.14941,-6.52881 -0.27793,-6.65733 -0.56215,-0.56215 -1.94891,-0.43682 -2.29363,0.20729 -0.19688,0.36789 -0.26723,0.75963 -0.15632,0.87054 0.11091,0.11091 0.24619,1.50667 0.30062,3.10169 0.0871,2.55204 0.19644,2.97356 0.91131,3.51279 l 0.81236,0.61276 -0.95969,-0.18346 c -1.3476,-0.2576 -1.60389,-0.95664 -1.73263,-4.72557 l -0.11302,-3.30904 -2.92556,-0.10291 -2.92557,-0.10292 0.11605,2.04319 c 0.0664,1.16925 -0.0349,2.07921 -0.23674,2.12739 -0.20257,0.0483 -0.35277,-0.7405 -0.35277,-1.85273 v -1.93692 l -2.39353,7.1e-4 -2.39353,7e-4 0.19422,3.2632 c 0.10682,1.79475 0.28373,4.25538 0.39313,5.46805 0.12338,1.36752 0.0649,2.20486 -0.15391,2.20486 -0.50055,0 -0.71011,-1.34011 -0.96541,-6.17361 -0.12298,-2.32833 -0.27959,-4.32654 -0.34802,-4.44047 -0.12572,-0.2093 -4.03203,-0.12409 -4.17116,0.091 -0.0413,0.0639 0.0122,1.50539 0.11903,3.20336 0.1068,1.69796 0.0701,3.08702 -0.0815,3.0868 -0.44288,-7e-4 -0.58185,-0.71609 -0.68532,-3.52818 l -0.0974,-2.64583 h -3.52777 -3.52778 l 0.0962,2.99861 c 0.0529,1.64923 0.17498,3.3558 0.2713,3.79236 0.12233,0.55446 0.0119,0.79375 -0.36637,0.79375 -0.35359,0 -0.54428,-0.33665 -0.54952,-0.97014 -0.007,-0.85158 -0.11811,-3.08809 -0.28162,-5.671 -0.0507,-0.80152 -0.12258,-0.81767 -3.13873,-0.70555 l -3.08681,0.11463 0.0564,3.70417 c 0.031,2.03729 0.1634,5.11089 0.29414,6.83022 0.19206,2.52577 0.14735,3.0961 -0.23282,2.97004 -0.354171,-0.11744 -0.536011,-1.67568 -0.735341,-6.30105 -0.14564,-3.37978 -0.3391,-6.34348 -0.42989,-6.58602 -0.10473,-0.27973 -0.8786,-0.44097 -2.11645,-0.44097 -1.97467,0 -2.2426,0.24824 -1.99451,1.84792 0.22409,1.44491 0.21313,4.85486 -0.0156,4.85486 -0.36688,0 -0.36611,0.005 -0.47025,-3.06724 -0.1095,-3.23026 -0.22576,-3.50211 -1.45968,-3.41301 -0.55545,0.0401 -1.60052,0.0858 -2.32237,0.10159 l -1.31246,0.0286 0.20879,4.49792 c 0.14614,3.14801 0.0972,4.39204 -0.1632,4.14514 -0.2046,-0.19403 -0.47632,-2.1784 -0.60381,-4.40972 -0.12749,-2.23132 -0.26342,-4.08963 -0.30206,-4.12958 -0.0386,-0.0399 -1.79068,0.0248 -3.89343,0.14388 l -3.82318,0.21651 0.24919,4.79501 c 0.13706,2.63726 0.31422,5.70782 0.3937,6.82348 0.15976,2.24246 -0.38004,2.8003 -0.68273,0.70556 -0.30715,-2.12566 -0.75298,-9.68553 -0.64493,-10.93611 0.11366,-1.31551 0.19813,-1.29759 -4.31658,-0.91596 l -2.72766,0.23057 0.1168,2.0632 c 0.0718,1.26808 -0.0192,2.01831 -0.23598,1.94671 -0.19403,-0.0641 -0.40149,-0.86597 -0.46102,-1.78201 -0.12844,-1.97658 0.19119,-2.01143 -5.3278,0.5809 l -3.87204,1.81875 0.21391,2.30635 c 0.19686,2.12266 0.16715,2.26779 -0.37305,1.82218 -0.39433,-0.32525 -0.58696,-1.02417 -0.58696,-2.12962 v -1.64546 l -2.63599,1.24769 -2.63598,1.24768 -0.01,1.85209 c -0.005,1.01864 -0.1686,1.85208 -0.36263,1.85208 -0.19403,0 -0.35278,-0.71437 -0.35278,-1.5875 0,-0.87312 -0.0797,-1.5875 -0.17705,-1.5875 -0.0974,0 -1.84333,0.79375 -3.8799,1.76389 -2.03656,0.97014 -3.85441,1.76389 -4.03966,1.76389 -0.19685,0 -0.25,0.73301 -0.12791,1.76389 0.22698,1.91647 -0.40879,2.552 -0.79406,0.79375 -0.42849,-1.95551 -0.4651,-1.99883 -1.15892,-1.37094 -0.35078,0.31745 -0.80533,0.57719 -1.01012,0.57719 -0.20479,0 -1.62104,0.61907 -3.14722,1.37571 -5.31385,2.63448 -9.59392,4.62151 -9.95474,4.62151 -0.19977,0 -0.46845,0.17026 -0.59706,0.37836 -0.16242,0.2628 0.55849,0.31731 2.36043,0.1785 1.42685,-0.10993 8.78551,-0.35962 16.3526,-0.55487 19.09927,-0.49281 25.14556,-0.6893 26.9875,-0.87701 0.87312,-0.089 4.60375,-0.25015 8.29027,-0.35815 3.68653,-0.10801 7.97278,-0.26937 9.525,-0.35859 3.22938,-0.18562 8.034561,-0.37984 21.519451,-0.86982 5.23875,-0.19036 11.15219,-0.44402 13.14097,-0.56371 l 3.61597,-0.21761 0.0163,7.70687 c 0.009,4.238781 0.0739,10.326241 0.14427,13.527701 0.15833,7.20013 0.5103,38.13868 0.73044,64.20555 0.0909,10.76854 0.16579,19.61885 0.16634,19.66736 0.002,0.14865 0.20559,0.10315 1.39347,-0.31094 z M 76.914229,87.798509 c 0,-0.46877 0.0958,-0.49288 0.52917,-0.1332 0.29104,0.24155 0.52916,0.49911 0.52916,0.57236 0,0.0733 -0.23812,0.1332 -0.52916,0.1332 -0.29105,0 -0.52917,-0.25757 -0.52917,-0.57236 z m 62.726571,-9.39361 c -0.0788,-0.24254 -0.0374,-0.9966 0.0922,-1.6757 0.2331,-1.22177 0.35155,-0.93798 0.47853,1.14653 0.0601,0.98726 -0.31018,1.33061 -0.57073,0.52917 z m 51.98096,89.483521 c 0.16128,-0.0997 0.21282,-9.26097 0.11454,-20.35842 -0.0983,-11.09745 -0.25211,-28.19406 -0.34183,-37.99247 -0.0897,-9.798401 -0.16699,-23.908041 -0.17169,-31.354751 l -0.009,-13.539474 -7.67292,0.232943 c -7.10515,0.21571 -11.94287,0.395884 -20.02014,0.745621 -1.74625,0.07561 -4.07476,0.14507 -5.17447,0.15435 l -1.99948,0.0169 0.12966,1.49931 c 0.0713,0.82461 0.13764,1.87813 0.14739,2.34113 l 0.0177,0.84184 5.37987,-0.22723 c 14.07633,-0.59456 18.16457,-0.66086 18.80063,-0.3049 0.58861,0.3294 0.52626,0.42135 -0.60667,0.89472 -0.69448,0.29017 -1.35252,0.67292 -1.4623,0.85055 -0.10978,0.17764 -0.0575,5.0754 0.11619,10.88391 0.35395,11.83691 0.61321,21.659211 0.8747,33.138721 0.0972,4.26862 0.25545,11.09487 0.3516,15.16945 0.0961,4.07458 0.2572,12.64708 0.3579,19.05 0.10071,6.40291 0.27989,13.21267 0.39817,15.13279 l 0.21507,3.49112 5.13068,-0.24243 c 2.82187,-0.13333 5.26264,-0.32398 5.42392,-0.42365 z M 88.311439,72.936839 c 0.13835,-0.54793 0.12603,-1.48062 -0.0559,-4.23333 -0.0315,-0.47723 -0.28187,-0.79375 -0.62778,-0.79375 -0.46851,0 -0.53472,0.24561 -0.35666,1.32291 0.12027,0.72761 0.22041,1.99761 0.22255,2.82223 0.004,1.49498 0.52192,2.05369 0.81776,0.88194 z m 5.68909,-0.0521 c 0.37519,-0.14693 0.5225,-0.36579 0.32739,-0.48638 -0.19512,-0.12059 -0.37813,-1.10773 -0.4067,-2.19365 -0.0286,-1.08592 -0.13627,-2.11083 -0.23933,-2.27758 -0.10306,-0.16676 -1.13982,-0.21682 -2.30391,-0.11127 -1.41099,0.12795 -2.11653,0.0636 -2.11653,-0.19302 0,-0.2258 0.91149,-0.42836 2.20486,-0.48997 2.13462,-0.10168 2.20599,-0.13593 2.24046,-1.07517 0.044,-1.199141 -0.29146,-1.20819 -2.84956,-0.0769 l -2.01981,0.89326 0.10957,2.8991 c 0.0603,1.59451 0.16504,3.01817 0.23284,3.16369 0.15827,0.33967 3.92421,0.29894 4.82072,-0.0521 z m 4.78592,-2.6819 v -2.64583 h -2.16581 -2.1658 l 0.22246,1.85208 c 0.12235,1.01865 0.22384,2.20927 0.22553,2.64584 0.003,0.72656 0.1673,0.79375 1.94334,0.79375 h 1.94028 z m 4.802711,2.29306 h 2.62834 l -0.0995,-2.55764 -0.0996,-2.55764 -3.175,0.0647 -3.175001,0.0647 v 2.40474 c 0,2.80044 0.0692,3.05051 0.770101,2.78157 0.28728,-0.11024 1.70508,-0.20044 3.15067,-0.20044 z m 8.68571,-0.34971 1.67036,-0.003 -0.10068,-2.52824 -0.10069,-2.52824 -2.36343,0.0294 c -1.29988,0.0161 -2.83967,0.0426 -3.42176,0.0588 l -1.05833,0.0294 v 2.69497 2.69497 l 1.85208,-0.22246 c 1.01865,-0.12235 2.60375,-0.22384 3.52245,-0.22552 z m 7.13942,-0.63427 c 0.10902,-0.28411 0.0239,-0.72662 -0.18919,-0.98336 -0.21308,-0.25675 -0.35849,-0.99069 -0.32312,-1.63098 0.11682,-2.11545 0.14386,-2.08921 -2.03567,-1.97554 l -2.02847,0.1058 -0.10725,2.07717 c -0.059,1.14244 -0.0211,2.30176 0.0843,2.57627 0.27151,0.70754 4.32014,0.55846 4.59943,-0.16936 z m 4.82126,-0.69172 c 0.14868,-2.93753 0.0915,-3.97181 -0.22549,-4.08214 -0.19403,-0.0675 -1.20633,-0.0299 -2.24957,0.0835 l -1.8968,0.20627 -0.0435,2.38146 -0.0435,2.38146 2.20486,-2.1e-4 c 2.15816,-2e-4 2.2059,-0.0207 2.25396,-0.97035 z m 4.83045,0.61816 1.99962,7e-4 -0.11725,-2.47281 -0.11724,-2.47281 -2.79318,0.0408 -2.79317,0.0408 v 2.18427 c 0,2.22499 0.45779,3.2015 1.34184,2.86225 0.26387,-0.10125 1.37959,-0.18374 2.47938,-0.1833 z m 16.94849,-0.58101 c 1.86046,-0.19445 2.14756,-0.31703 1.97989,-0.84529 -0.10785,-0.33982 -0.21077,-1.34873 -0.2287,-2.24201 -0.0185,-0.91873 -0.2047,-1.64284 -0.42883,-1.66717 -0.21793,-0.0237 -1.11061,-0.0273 -1.98373,-0.008 -0.87313,0.0192 -3.53219,0.048 -5.90903,0.064 -2.37684,0.016 -4.33417,0.13876 -4.34962,0.27273 -0.0155,0.13398 -0.0551,1.23583 -0.0882,2.44856 l -0.0601,2.20497 4.44617,-1.1e-4 c 2.44539,-6e-5 5.42536,-0.10245 6.62215,-0.22754 z m -6.65859,-0.8309 c 0,-0.38805 0.15875,-0.70555 0.35277,-0.70555 0.19403,0 0.35278,0.3175 0.35278,0.70555 0,0.38806 -0.15875,0.70556 -0.35278,0.70556 -0.19402,0 -0.35277,-0.3175 -0.35277,-0.70556 z m -0.35278,-2.11666 c 0,-0.38806 0.14023,-0.70556 0.31163,-0.70556 0.1714,0 0.39466,0.3175 0.49614,0.70556 0.11992,0.45856 0.0108,0.70555 -0.31163,0.70555 -0.27288,0 -0.49614,-0.3175 -0.49614,-0.70555 z m -38.45278,-1.20003 c 2.61937,-0.10581 4.89228,-0.1966 5.05091,-0.20174 0.288,-0.009 0.26376,-6.501997 -0.0273,-7.321066 -0.10614,-0.298658 -0.88723,-0.05296 -2.52339,0.79375 -1.30331,0.674469 -2.5522,1.226305 -2.77529,1.226305 -0.802911,0 -1.211781,1.455417 -0.964611,3.433667 0.19203,1.536994 0.14468,1.904114 -0.22928,1.777704 -0.33027,-0.11164 -0.45113,-0.756828 -0.40393,-2.156174 0.037,-1.098275 -0.0785,-1.996863 -0.25677,-1.996863 -0.17827,0 -1.19113,0.425217 -2.2508,0.944929 -1.81407,0.889705 -1.91584,1.00826 -1.74118,2.028472 0.29247,1.708366 0.42003,1.963326 0.90484,1.808506 0.24988,-0.0798 2.59745,-0.23167 5.216831,-0.33749 z m 13.12932,-1.622195 c -0.0549,-0.679097 -0.15728,-3.139722 -0.22748,-5.468056 -0.0702,-2.328333 -0.14433,-4.344162 -0.16474,-4.479621 -0.0204,-0.135456 -1.62182,0.552704 -3.5587,1.529249 l -3.5216,1.775534 0.13097,1.822143 c 0.072,1.002175 0.14863,2.821827 0.17021,4.04367 l 0.0392,2.221526 3.61597,-0.10486 3.61598,-0.10486 z m 3.86652,1.085325 1.65,-0.027 -0.18343,-1.146526 c -0.10088,-0.63059 -0.20839,-3.633625 -0.23889,-6.673409 -0.0305,-3.039784 -0.15907,-5.630471 -0.2857,-5.757079 -0.21283,-0.21281 -1.65781,0.426251 -2.06282,0.912315 -0.097,0.116427 -0.62903,0.359911 -1.18226,0.541073 l -1.00586,0.329392 0.0236,5.734738 c 0.013,3.154105 0.10905,5.873046 0.21352,6.042086 0.10447,0.16904 0.46713,0.25426 0.80591,0.18937 0.33878,-0.0649 1.35846,-0.13012 2.26597,-0.14497 z m 6.45352,-6.37624 c -0.14588,-3.395899 -0.29535,-6.927946 -0.33216,-7.848992 -0.0368,-0.92105 -0.16488,-1.772585 -0.2846,-1.892303 -0.11972,-0.119719 -0.64431,0.117926 -1.16577,0.528104 -0.52145,0.410175 -1.23481,0.745773 -1.58525,0.745773 -1.1955,0 -1.18128,-0.158373 -0.88707,9.877777 0.0768,2.619375 0.15506,4.809641 0.17394,4.867251 0.0189,0.0576 1.00449,0.058 2.19024,7.1e-4 l 2.15591,-0.104 -0.26524,-6.174366 z m 4.86833,6.00129 2.03575,-0.005 -0.20885,-9.260419 c -0.11487,-5.093229 -0.32472,-9.379673 -0.46632,-9.52543 -0.14161,-0.145753 -1.04308,0.123568 -2.00328,0.598498 -0.96021,0.474927 -2.18637,1.02833 -2.72481,1.229784 l -0.97899,0.366278 0.22337,6.44356 c 0.21934,6.327556 0.36754,9.67123 0.4555,10.277069 0.0244,0.16815 0.40157,0.21 0.83813,0.093 0.43657,-0.11699 1.70984,-0.21489 2.8295,-0.21754 z M 77.608829,266.96464 c -0.22135,-5.34599 -0.33453,-10.12377 -0.41676,-17.59338 -0.0744,-6.75834 -0.2095,-9.17361 -0.50674,-9.05998 -0.71277,0.27248 -0.87749,-0.5502 -0.28975,-1.4472 0.4757,-0.72601 0.55041,-1.76896 0.45563,-6.36045 -0.0623,-3.02062 0.003,-5.49182 0.14449,-5.49156 0.53826,0.001 0.95436,3.24106 1.00812,7.8498 0.0243,2.0858 0.14631,3.79764 0.27107,3.80409 0.42532,0.022 1.91497,1.41634 1.72071,1.6106 -0.10647,0.10647 -0.68458,-0.0603 -1.2847,-0.37066 -1.11202,-0.57505 -1.33823,-0.42475 -0.75312,0.50038 0.21187,0.33498 0.17888,0.70082 -0.0936,1.03786 -0.23143,0.28629 -0.258,0.42334 -0.059,0.30456 0.24199,-0.14446 0.3869,2.43174 0.43771,7.78159 0.0418,4.39865 0.14565,10.18036 0.23084,12.84824 0.12909,4.04288 0.0709,4.8507 -0.34951,4.8507 -0.27741,0 -0.50932,-0.11907 -0.51535,-0.26459 z m 45.827041,-1.17592 c -0.0248,-0.4689 -0.0825,-1.20974 -0.12822,-1.6463 -0.0458,-0.43656 0.0539,-0.79375 0.22141,-0.79375 0.16754,0 0.30461,-0.16812 0.30461,-0.3736 0,-0.20548 -0.16163,-0.2737 -0.35917,-0.15161 -0.23671,0.14629 -0.34694,-1.19978 -0.3233,-3.94793 0.0197,-2.29345 -0.0792,-4.62717 -0.21978,-5.18605 -0.19787,-0.78644 -0.14472,-0.97855 0.2351,-0.84989 0.32519,0.11015 0.49076,0.72097 0.49076,1.81045 0,0.90432 0.099,1.64396 0.22003,1.64365 0.12102,-3.2e-4 0.11241,0.51536 -0.0191,1.14595 -0.13154,0.63059 -0.0718,1.60791 0.13275,2.17181 0.27332,0.75348 0.26301,1.06255 -0.0389,1.16587 -0.28123,0.0962 -0.3169,0.468 -0.11308,1.17866 0.16374,0.57093 0.21527,1.79254 0.11451,2.71468 -0.20536,1.87945 -0.44953,2.40688 -0.51759,1.11806 z m 8.00706,0.0691 c -0.10641,-0.17219 -0.27701,-2.59313 -0.37909,-5.37986 -0.10209,-2.78673 -0.26623,-6.2971 -0.36476,-7.80082 -0.10772,-1.64401 -0.0435,-2.73402 0.16107,-2.73402 0.18712,0 0.41368,0.11906 0.50347,0.26458 0.24571,0.39825 0.70916,15.96319 0.4753,15.96319 -0.11137,0 -0.28957,-0.14088 -0.39599,-0.31307 z m -67.989471,-1.00984 c -0.0304,-0.53358 -0.0994,-1.36702 -0.15341,-1.85209 -0.25572,-2.29685 -0.38983,-9.50044 -0.17439,-9.36729 0.13387,0.0827 0.20091,-0.71864 0.14896,-1.78084 -0.062,-1.26756 0.0316,-1.8534 0.27224,-1.70465 0.20167,0.12464 0.16607,-0.0946 -0.0791,-0.48721 -0.36107,-0.57816 -0.35781,-0.81984 0.0171,-1.27164 0.30077,-0.3624 0.32654,-0.55781 0.0736,-0.55781 -0.27361,0 -0.34262,-1.56226 -0.23211,-5.25409 0.0865,-2.88975 0.18171,-5.39006 0.21157,-5.55625 0.0299,-0.16619 0.0223,-0.42122 -0.0169,-0.56674 -0.21859,-0.81261 -0.0824,-2.73286 0.19341,-2.72606 0.43778,0.0108 0.41289,1.86655 -0.0294,2.19149 -0.22856,0.16791 -0.21781,0.26108 0.0305,0.26458 0.24684,0.004 0.40342,1.29263 0.43986,3.62138 0.0387,2.47179 -0.053,3.44853 -0.28969,3.0868 -0.29873,-0.45653 -0.34701,-0.44728 -0.35167,0.0674 -0.003,0.3281 0.1368,0.68443 0.31061,0.79185 0.4384,0.27095 0.47195,9.10866 0.0389,10.24769 -0.2339,0.61519 -0.23426,0.85461 -0.001,0.71049 0.19344,-0.11956 0.35651,0.0698 0.36238,0.42081 0.006,0.351 0.0723,2.90037 0.14762,5.66526 0.11357,4.16923 0.0516,5.02709 -0.36345,5.02709 -0.29732,0 -0.52281,-0.39373 -0.55561,-0.97014 z m -7.05556,-0.85255 c -0.0304,-0.64676 -0.0944,-1.65217 -0.1422,-2.23426 -0.11092,-1.34951 -0.14736,-10.6763 -0.0517,-13.22782 0.0481,-1.28303 -0.0665,-1.93938 -0.33887,-1.94027 -0.79781,-0.002 -0.84472,-0.454 -0.16964,-1.63259 0.37519,-0.65504 0.78871,-1.94812 0.91892,-2.8735 0.30544,-2.1708 1.04849,-1.84588 0.80095,0.35024 -0.15556,1.38014 -0.046,1.72413 0.8882,2.7881 1.22488,1.39505 1.04032,2.06161 -0.23825,0.86046 -1.00654,-0.94561 -1.98378,-0.66575 -1.09699,0.31415 0.47886,0.52913 0.52756,1.28748 0.33193,5.16845 -0.19998,3.96737 -0.20918,8.95088 -0.0227,12.27501 0.0316,0.56314 -0.14099,1.09231 -0.38352,1.17593 -0.28879,0.0996 -0.46003,-0.25379 -0.49619,-1.0239 z m 0.64163,-21.90165 c -0.0979,-0.24253 -0.17793,-0.0441 -0.17793,0.44097 0,0.48507 0.0801,0.68351 0.17793,0.44098 0.0979,-0.24254 0.0979,-0.63941 0,-0.88195 z m 35.96768,22.30331 c -0.095,-0.2856 -0.25817,-7.58366 -0.36257,-16.21789 -0.10439,-8.63424 -0.2769,-18.71486 -0.38335,-22.40139 -0.13779,-4.77173 -0.0884,-6.46187 0.17153,-5.86659 0.42423,0.97168 0.58258,3.44827 0.87137,13.6277 0.40851,14.39947 0.50822,30.35412 0.1929,30.86433 -0.27679,0.44785 -0.3391,0.44707 -0.48988,-0.006 z m 15.165191,-1.31303 c -0.10263,-0.33955 -0.18673,-1.64924 -0.18687,-2.91042 -2.6e-4,-2.25401 -0.22671,-10.02065 -0.56557,-19.39747 -0.0945,-2.61645 -0.26084,-5.03739 -0.36954,-5.37986 -0.10869,-0.34247 -0.0679,-0.62267 0.0907,-0.62268 0.1586,-1e-5 0.28836,-1.88986 0.28836,-4.19966 0,-2.30981 -0.0964,-4.14005 -0.2143,-4.06719 -0.11786,0.0729 -0.19723,-2.30826 -0.17639,-5.29136 0.0208,-2.98309 -0.0811,-5.35036 -0.22668,-5.26058 -0.14552,0.0898 -0.26458,-0.24302 -0.26458,-0.73954 0,-0.58246 0.19514,-0.90277 0.54999,-0.90277 0.30249,0 0.45187,0.15875 0.33196,0.35278 -0.11992,0.19403 -0.0696,0.35278 0.1119,0.35278 0.18634,0 0.35749,2.188 0.39325,5.02708 0.0348,2.7649 0.14052,6.61458 0.23489,8.55486 0.0944,1.94028 0.24763,8.82678 0.34056,15.30335 0.0929,6.47656 0.24039,11.89112 0.32768,12.03235 0.3516,0.5689 0.25233,6.5066 -0.11081,6.62764 -0.20674,0.0689 -0.28845,0.35317 -0.18158,0.63168 0.10687,0.2785 0.10865,0.50637 0.004,0.50637 -0.10469,0 -0.27433,-0.27781 -0.37696,-0.61736 z m 16.2785,-13.42102 c -1.32957,-0.16392 -1.5791,-0.80011 -1.79753,-4.5829 -0.10907,-1.88904 -0.42121,-3.7362 -0.73899,-4.3732 -0.73844,-1.48024 -0.71243,-1.59793 0.49066,-2.22007 1.42067,-0.73466 2.55948,-0.67538 3.47878,0.18107 0.86177,0.80286 0.911,1.09402 0.45426,2.68656 -0.31231,1.08899 -0.29074,1.11572 1.24814,1.54658 1.74086,0.48741 2.95023,1.74484 2.95023,3.06749 0,1.76098 -3.67449,3.99173 -6.08555,3.69447 z m 2.66349,-1.70277 c 2.31112,-1.17031 2.85574,-2.14836 1.91369,-3.43669 -0.60047,-0.82118 -3.56666,-1.08743 -4.15929,-0.37335 -0.34252,0.41271 -0.5249,0.42547 -0.95691,0.0669 -0.47074,-0.39068 -0.50269,-0.19345 -0.27071,1.67135 0.14465,1.16286 0.33589,2.23336 0.42497,2.37888 0.27651,0.45173 1.8659,0.29159 3.04825,-0.30712 z m -1.65769,-7.02897 c 0.36841,-1.46787 -0.0666,-2.04159 -1.35285,-1.78433 -1.57388,0.31478 -1.78283,0.64278 -1.16462,1.82825 0.29552,0.5667 0.54331,1.42724 0.55064,1.91231 l 0.0133,0.88195 0.86828,-0.98689 c 0.47755,-0.54278 0.96591,-1.37586 1.08524,-1.85129 z m 38.24086,-4.45257 c 0,-0.16168 0.14938,-0.29398 0.33196,-0.29398 0.18258,0 0.41372,0.1323 0.51365,0.29398 0.0999,0.1617 -0.0494,0.29399 -0.33196,0.29399 -0.2825,0 -0.51365,-0.13229 -0.51365,-0.29399 z m 0.28682,-2.05787 c -0.17069,-3.52985 -0.21379,-4.71677 -0.44187,-12.17083 -0.13062,-4.26861 -0.29051,-8.58801 -0.35532,-9.59865 -0.0651,-1.01594 0.0625,-2.08411 0.28537,-2.38897 0.31853,-0.43561 0.42418,-0.0126 0.50305,2.01393 0.0549,1.41095 0.15576,3.37855 0.2241,4.37246 0.0683,0.99391 -0.006,2.01723 -0.16433,2.27405 -0.15872,0.25682 -0.14403,0.73704 0.0326,1.06717 0.17668,0.33012 0.3456,3.19617 0.37539,6.369 0.0298,3.17284 0.18559,6.12036 0.34623,6.55005 0.17771,0.47536 0.14981,0.86919 -0.0713,1.00582 -0.19984,0.12351 -0.28784,0.42134 -0.19555,0.66184 0.0923,0.24051 0.0262,0.66101 -0.14694,0.93446 -0.2157,0.34073 -0.33889,-0.002 -0.3915,-1.09033 z m 8.88541,-6.44677 c 0,-0.89401 0.13892,-1.71133 0.30872,-1.81628 0.28433,-0.17572 0.1136,2.96222 -0.17927,3.29477 -0.0712,0.0808 -0.12945,-0.58448 -0.12945,-1.47849 z m -65.77038,-15.32204 c -0.19145,-0.50278 -0.15093,-0.5433 0.19748,-0.19748 0.2411,0.2393 0.34949,0.52396 0.24087,0.63257 -0.10861,0.10862 -0.30587,-0.0872 -0.43835,-0.43509 z M 26.496239,92.939609 c -0.46863,-2.18511 -0.492,-3.06389 -0.0694,-2.61083 0.33703,0.36137 0.90968,4.39209 0.62399,4.39209 -0.0949,0 -0.34445,-0.80157 -0.55456,-1.78126 z m 221.100071,1.17829 c -0.5194,-0.0795 -1.15126,-0.39382 -1.4042,-0.69858 -0.40714,-0.49058 -0.32921,-0.5254 0.68001,-0.30374 1.6498,0.36236 1.78795,-0.4593 0.46987,-2.7948 -1.17616,-2.08405 -1.34013,-2.97421 -0.67109,-3.64325 0.51283,-0.51283 2.27213,-0.56103 2.57528,-0.0705 0.12315,0.19925 -0.16577,0.35278 -0.66393,0.35278 -1.5434,0 -1.84513,1.60771 -0.56275,2.99861 1.01229,1.09795 1.43467,2.51672 1.05029,3.52778 -0.18443,0.48506 -0.37892,0.85816 -0.43223,0.82908 -0.0533,-0.0291 -0.5219,-0.11787 -1.04125,-0.19733 z m 4.64562,-0.87824 c -0.57566,-0.21295 -0.72577,-0.47571 -0.56653,-0.99175 0.11914,-0.38612 0.31451,-1.01954 0.43413,-1.4076 0.12771,-0.41419 0.0549,-0.70555 -0.17639,-0.70555 -0.21664,0 -0.39391,0.15875 -0.39391,0.35277 0,0.19403 -0.23812,0.35278 -0.52916,0.35278 -0.79795,0 -0.63493,-0.9105 0.26458,-1.47773 1.28746,-0.81189 2.12697,-0.4256 1.94063,0.89294 -0.0866,0.61268 -0.27799,1.39177 -0.42531,1.73132 -0.22197,0.51152 -0.0836,0.61736 0.80737,0.61736 0.59139,0 1.16237,0.14097 1.26887,0.31327 0.26938,0.43587 -1.67249,0.67428 -2.62428,0.32219 z m -227.347361,-9.7833 c -0.11163,-0.18063 -0.0416,-0.42812 0.15557,-0.54999 0.19719,-0.12187 0.35853,0.0259 0.35853,0.3284 0,0.61966 -0.21169,0.7109 -0.5141,0.22159 z m -0.54423,-1.59106 c 0,-0.27959 0.14914,-0.60052 0.33143,-0.71318 0.18228,-0.11266 0.30725,0.1161 0.2777,0.50835 -0.0607,0.80558 -0.60913,0.99 -0.60913,0.20483 z m -1.35541,-10.78054 c 0,-0.48507 0.0801,-0.68351 0.17794,-0.44098 0.0979,0.24254 0.0979,0.63941 0,0.88195 -0.0979,0.24253 -0.17794,0.0441 -0.17794,-0.44097 z m 47.39424,-1.31609 c -0.12119,-0.92539 -0.3695,-2.04718 -0.55181,-2.49287 -0.18231,-0.44569 -0.31893,-1.16007 -0.30361,-1.587502 0.0263,-0.732748 0.0459,-0.726761 0.34432,0.104792 0.6688,1.86382 1.31493,5.29748 1.02999,5.47359 -0.1642,0.10148 -0.39771,-0.57262 -0.51889,-1.49801 z m 64.208611,-5.026826 c -0.11751,-0.190129 -0.20306,-3.563567 -0.19012,-7.496527 0.0129,-3.932961 0.0159,-7.468338 0.007,-7.856393 -0.009,-0.388056 -0.0105,-3.602743 -0.002,-7.14375 0.01,-4.354622 -0.10785,-6.438194 -0.36367,-6.438194 -0.20801,0 -0.29037,0.142116 -0.18302,0.315813 0.28055,0.453941 -0.9102,0.832531 -1.32231,0.42042 -0.22512,-0.225118 0.0102,-0.772591 0.67635,-1.573594 1.17598,-1.414021 1.43537,-1.493075 2.30793,-0.703421 0.59521,0.53866 0.70522,0.502151 1.7019,-0.564797 l 1.06556,-1.140689 1.14207,0.723102 c 0.62813,0.397708 1.19769,0.889995 1.26568,1.093968 0.19414,0.582404 -0.68941,0.43398 -1.46734,-0.246497 -0.38818,-0.339548 -0.58126,-0.40519 -0.42907,-0.14587 0.39303,0.669682 0.54748,12.444903 0.1601,12.205487 -0.17357,-0.107252 -0.31556,-0.788889 -0.31556,-1.514743 0,-0.725855 -0.18377,-1.503507 -0.40838,-1.728118 -0.27109,-0.271088 -0.29294,-0.561657 -0.065,-0.864305 0.47816,-0.634831 0.32626,-7.44292 -0.16975,-7.608256 -0.21406,-0.07135 -0.49164,0.278419 -0.61685,0.777272 -0.25678,1.023108 -0.90312,1.172058 -1.57467,0.362888 -0.77412,-0.932755 -0.94719,-0.105717 -0.72829,3.480276 0.11634,1.905932 0.0711,3.715974 -0.10056,4.02232 -0.24739,0.441522 -0.17426,0.514099 0.35278,0.350096 2.0534,-0.638976 2.37447,-0.612969 1.10584,0.08957 -1.29944,0.719597 -1.32364,0.771585 -1.36383,2.929033 -0.0781,4.190986 0.0753,10.96246 0.25483,11.252987 0.0993,0.160633 0.0444,0.292057 -0.12203,0.292057 -0.16639,0 -0.25377,1.5875 -0.19418,3.527778 0.10452,3.403491 0.0355,3.923178 -0.42249,3.182087 z m 4.52293,-1.770976 c 0,-2.334521 0.44133,-2.882649 0.6391,-0.79375 0.15378,1.624245 -0.01,2.910417 -0.36965,2.910417 -0.1482,0 -0.26945,-0.9525 -0.26945,-2.116667 z m -69.438431,1.411111 c 0.11992,-0.194028 0.28804,-0.352778 0.3736,-0.352778 0.0856,0 0.15557,0.15875 0.15557,0.352778 0,0.194028 -0.16812,0.352778 -0.3736,0.352778 -0.20548,0 -0.27548,-0.15875 -0.15557,-0.352778 z m -48.56067,-0.79375 c -0.10757,-0.882787 -0.16923,-1.160713 -0.42701,-1.924858 -0.26624,-0.789188 0.065,-3.459169 0.38895,-3.135217 0.23961,0.239607 0.50065,5.501047 0.27293,5.501047 -0.0996,0 -0.20532,-0.198437 -0.23487,-0.440972 z M 139.09104,58.792211 c 0.10948,-0.418663 0.0948,-0.697308 -0.0326,-0.619213 -0.12742,0.0781 -0.28359,-2.47861 -0.34705,-5.681571 -0.0742,-3.746697 0.008,-5.747286 0.23072,-5.609671 0.29264,0.180855 0.41246,1.287773 0.48145,4.447445 0.006,0.291041 -0.009,0.926041 -0.0345,1.411111 -0.0253,0.485069 0.0166,2.115001 0.0932,3.622075 0.0843,1.658789 -0.005,2.829098 -0.22554,2.96558 -0.22787,0.140833 -0.29007,-0.06025 -0.16573,-0.535756 z M 67.435949,54.774936 c -0.24583,-1.112276 -0.59504,-2.113833 -0.77601,-2.225682 -0.18098,-0.111848 -0.32904,-0.6967 -0.32904,-1.299668 0,-1.119671 0.43035,-1.126621 0.52043,-0.0084 0.0273,0.339453 0.33204,1.350729 0.6771,2.247279 0.34506,0.896553 0.56598,2.007803 0.49093,2.469444 -0.0949,0.5836 -0.27264,0.22315 -0.58341,-1.182966 z m -47.60117,-1.752402 c -0.23283,-0.232833 -0.42333,-1.053042 -0.42333,-1.822686 0,-0.769642 0.10431,-1.29504 0.2318,-1.167547 0.19282,0.192815 0.82004,3.413566 0.66477,3.413566 -0.0275,0 -0.2404,-0.1905 -0.47324,-0.423333 z m 45.55391,-8.852602 c -7.1e-4,-0.233997 -0.1208,-1.060453 -0.26665,-1.836564 -0.14585,-0.776112 -0.14059,-1.287456 0.0117,-1.136319 0.15227,0.151137 0.31559,0.538678 0.36292,0.861198 0.0473,0.32252 0.17562,0.943197 0.28507,1.37928 0.10945,0.436082 0.0661,0.874998 -0.0963,0.97537 -0.16241,0.100369 -0.29594,-0.009 -0.29675,-0.242965 z m -47.39708,-1.85953 c -0.43175,-1.135588 -0.45473,-2.179588 -0.0379,-1.723284 0.34917,0.382255 0.82623,2.628194 0.55826,2.628194 -0.097,0 -0.33112,-0.407208 -0.52034,-0.90491 z M 146.70811,34.689834 c 0.0662,-1.148059 0.0147,-2.358549 -0.1144,-2.68998 -0.20852,-0.535446 -0.31029,-0.509901 -0.9132,0.229214 -0.41694,0.51114 -0.89242,0.749727 -1.23338,0.618888 -0.45296,-0.173817 -0.3168,-0.503442 0.74134,-1.794767 1.12412,-1.371833 1.39067,-1.531292 2.00772,-1.201053 0.41426,0.221703 0.62166,0.235401 0.49644,0.03281 -0.11829,-0.191403 0.0213,-0.544177 0.31021,-0.78395 0.2889,-0.239769 0.52528,-0.654632 0.52528,-0.921914 0,-0.898034 1.31812,-0.542156 1.49913,0.404749 0.14275,0.74676 0.0623,0.856449 -0.4979,0.678653 -0.95299,-0.302465 -2.04111,1.126814 -2.02808,2.663959 0.0286,3.370767 -0.0921,4.533935 -0.48599,4.685901 -0.313,0.120742 -0.39524,-0.393993 -0.30717,-1.922491 z M 16.511339,35.013229 c -0.63083,-0.978334 -1.33322,-3.724596 -1.33322,-5.212697 0,-1.682475 0.84491,-1.10302 1.08336,0.742985 0.11078,0.857613 0.46797,2.173996 0.79375,2.925293 0.95385,2.199718 0.57405,3.278198 -0.54389,1.544419 z m 47.65879,-0.440972 c -0.0508,-0.609413 -0.0406,-0.566837 -0.62098,-2.593249 -0.49833,-1.739875 -0.25812,-2.434854 0.31791,-0.919787 0.47592,1.251786 0.87045,4.042202 0.57151,4.042202 -0.12339,0 -0.24418,-0.238125 -0.26844,-0.529166 z m -42.8184,-1.277571 c -0.77611,-0.172967 -2.0103,-0.414256 -2.74263,-0.536201 -0.73234,-0.121941 -1.40686,-0.343623 -1.49895,-0.492626 -0.0921,-0.148999 0.22773,-1.119766 0.71071,-2.157257 0.48298,-1.037491 0.87969,-2.164158 0.88159,-2.503706 0.002,-0.339549 0.16718,-0.617362 0.36729,-0.617362 0.68935,0 0.7691,1.063326 0.18858,2.514195 -0.70719,1.76743 -0.48789,2.073846 0.91005,1.271541 0.58528,-0.335904 1.37667,-0.610736 1.75863,-0.610736 0.38197,0 1.16012,-0.240788 1.72922,-0.535082 1.33242,-0.689021 4.2219,-1.102424 4.2219,-0.604037 0,0.202343 -0.91282,0.629504 -2.02848,0.949244 -1.11566,0.319743 -2.51599,0.731393 -3.11185,0.914781 -0.59586,0.183384 -1.33048,0.333428 -1.6325,0.333428 -0.30201,0 -0.74674,0.238125 -0.98828,0.529166 -0.3709,0.44691 -0.29893,0.529167 0.463,0.529167 1.18204,0 2.712,0.592127 2.712,1.049602 0,0.402992 0.0229,0.403394 -1.94028,-0.03411 z m 14.77583,-2.93497 c -0.1073,-0.279605 -0.142,-1.632617 -0.0771,-3.006693 0.13342,-2.825867 0.29001,-2.73758 -3.18221,-1.79414 -1.57234,0.427225 -2.90676,0.247763 -2.31507,-0.311344 0.79515,-0.751363 9.19903,-2.297098 10.28954,-1.892568 0.9579,0.355336 0.34922,0.771035 -1.45993,0.997074 -1.8684,0.233443 -1.90368,0.25951 -2.06356,1.524691 -0.0895,0.707954 -0.14687,2.120604 -0.12757,3.139225 0.0244,1.288873 -0.10236,1.852051 -0.41695,1.852083 -0.24863,2.5e-5 -0.53983,-0.228723 -0.64713,-0.508328 z m 6.08715,-4.675406 c -0.42852,-0.428523 -0.2231,-0.813442 0.43412,-0.813442 0.8541,0 4.61917,-1.203897 6.00291,-1.919457 0.93585,-0.483944 3.60326,-1.193211 6.82959,-1.815994 1.79349,-0.346199 4.63391,-1.430087 4.76307,-1.817561 0.0705,-0.211384 -0.15844,-0.481174 -0.50867,-0.599531 -0.35023,-0.118357 -0.922,-0.60808 -1.27061,-1.08827 -0.98668,-1.359112 0.19488,-1.143226 1.27139,0.2323 1.19001,1.520543 1.64059,1.106445 1.23346,-1.133566 -0.35896,-1.974953 -0.31395,-2.190563 0.36919,-1.768362 0.25073,0.154964 0.50366,0.922418 0.56206,1.705458 0.0584,0.783039 0.20636,1.585792 0.3288,1.783898 0.12243,0.198106 0.13951,0.576746 0.0379,0.841425 -0.10156,0.264678 0.0411,1.231504 0.31711,2.148501 0.4158,1.381587 0.42059,1.66727 0.0279,1.66727 -0.60286,0 -0.85159,-0.40888 -0.94653,-1.555986 -0.10449,-1.262493 -0.84494,-1.148024 -1.10883,0.171418 -0.25738,1.286916 -1.39015,1.328759 -1.57144,0.05805 -0.12723,-0.891734 -0.20965,-0.92564 -1.09643,-0.451051 -0.34848,0.186503 -2.08588,0.656061 -3.8609,1.043464 -1.77502,0.387403 -3.74165,0.933104 -4.37029,1.212673 -0.62864,0.279566 -2.01611,0.784634 -3.08327,1.12237 -1.06715,0.337735 -2.1784,0.695166 -2.46944,0.794286 -1.00748,0.343122 -1.6667,0.406601 -1.89119,0.182111 z M 306.57257,6.7194112 c 0,-0.380492 0.90448,-2.200818 1.46554,-2.949529 0.33645,-0.448949 0.52419,-1.044261 0.41727,-1.322917 -0.11815,-0.307922 0.0229,-0.506652 0.36008,-0.506652 0.30497,0 0.71691,-0.303431 0.91539,-0.674289 0.33224,-0.620801 0.15832,-0.707626 -2.19245,-1.094507 -1.40434,-0.231123 -3.34708,-0.556878 -4.31722,-0.7239 -0.97014,-0.167023 -6.36764,-0.291303 -11.99445,-0.276176 -9.87435,0.02656 -14.46805,-0.282589 -21.87222,-1.471912 -1.16417,-0.186997 -2.71198,-0.341196 -3.43958,-0.342664 -0.72761,-0.0015 -1.32292,-0.161413 -1.32292,-0.355441 0,-0.482713 1.6764,-0.439522 5.64445,0.145426 7.4507,1.098345 11.5903,1.365239 21.87222,1.410176 10.43513,0.0456 13.48228,0.30136 17.55069,1.473083 1.00447,0.289292 1.04197,-0.398261 0.0882,-1.617574 -0.76909,-0.983237 -0.8774,-1.411111 -0.35719,-1.411111 0.63204,0 2.08777,2.697025 1.88147,3.485829 -0.10749,0.411127 -0.30879,0.747504 -0.44729,0.747504 -0.42651,0 -2.36326,2.923702 -2.86272,4.321528 -0.25996,0.727604 -0.67892,1.322917 -0.93098,1.322917 -0.25206,0 -0.45829,-0.07191 -0.45829,-0.159791 z m -98.94266,-0.527142 c -0.12625,-0.204272 -0.0614,-0.371401 0.14406,-0.371401 0.20547,0 0.37359,-0.218687 0.37359,-0.485972 0,-0.606722 0.99085,-1.463001 1.31631,-1.137539 0.27513,0.275128 -0.72939,2.074633 -1.25611,2.250207 -0.19157,0.06386 -0.45161,-0.05103 -0.57785,-0.255295 z m 102.31546,-2.908335 c 0.13494,-0.425175 0.71025,-1.258612 1.2784,-1.852083 0.56818,-0.593471 1.26629,-1.515601 1.55137,-2.049177 0.28508,-0.533576 0.75237,-0.970139 1.03844,-0.970139 0.28607,0 0.59947,0 0.69649,0 0.097,0 0.1367,0.119063 0.0882,0.264583 -0.0485,0.145521 -0.20725,0.224896 -0.35278,0.176389 -0.14552,-0.04851 -0.26458,0.08624 -0.26458,0.299434 0,0.213195 -0.47625,0.832514 -1.05833,1.376261 -0.58209,0.543747 -1.05834,1.090118 -1.05834,1.214155 0,0.399958 -1.53349,2.313622 -1.85398,2.313622 -0.17064,0 -0.19982,-0.34787 -0.0649,-0.773045 z m -99.68114,-0.77126 c 0,-0.07326 0.24176,-0.333834 0.53724,-0.579064 0.44921,-0.372809 0.50083,-0.350986 0.31504,0.133195 -0.18976,0.494499 -0.85228,0.8411 -0.85228,0.445869 z m -1.76389,-0.603141 c 0,-0.210958 0.91281,-1.342397 2.02847,-2.514311 1.11566,-1.171917 2.32216,-2.443938 2.68112,-2.82672 0.51061,-0.544516 0.74092,-0.601923 1.05833,-0.263814 0.3066,0.326594 0.29798,0.471646 -0.0353,0.593841 -0.24253,0.08893 -0.44097,0.369602 -0.44097,0.623715 0,0.641413 0.51458,0.738886 3.35139,0.634813 1.35819,-0.04983 3.97757,-0.05743 5.82083,-0.0169 1.84327,0.04055 5.37545,0.07872 7.84931,0.08484 2.756,0.0068 4.49791,0.147747 4.49791,0.363904 0,0.227683 -3.97171,0.354351 -11.20069,0.35722 l -11.2007,0.0044 0.0946,1.494864 c 0.052,0.822176 0.006,1.494864 -0.10295,1.494864 -0.53895,0 -1.62513,-1.404091 -1.38577,-1.791378 0.17226,-0.278722 0.12252,-0.344131 -0.13887,-0.182587 -0.224,0.138458 -0.40728,0.480487 -0.40728,0.760077 0,0.279591 -0.21869,0.508346 -0.48598,0.508346 -0.26728,0 -0.68359,0.238125 -0.92513,0.529167 -0.51373,0.618998 -1.05834,0.693928 -1.05834,0.145609 z m 35.64298,-4.53214 c -0.56604,-1.057624 -0.4548,-3.185943 0.17917,-3.429232 0.80031,-0.307104 0.90325,-0.02801 0.44115,1.196163 -0.3266,0.865329 -0.31626,1.211898 0.0494,1.652429 0.97667,1.176845 2.84569,0.252077 2.84569,-1.408028 0,-1.242243 0.61517,-1.050392 1.212,0.377977 0.66682,1.595988 1.93301,1.671754 3.40124,0.203524 1.16437,-1.164353 1.28107,-2.048393 0.47603,-3.605216 -0.55435,-1.071989 -0.4941,-1.614872 0.13604,-1.225437 0.18333,0.113312 0.60677,0.782214 0.94092,1.486447 0.57542,1.212578 0.57517,1.35236 -0.005,2.638192 -0.42242,0.936756 -1.05142,1.57504 -2.02851,2.058469 -1.30193,0.644148 -1.49997,0.657391 -2.45396,0.164073 -0.93341,-0.482684 -1.09932,-0.480853 -1.65078,0.0182 -0.89049,0.805889 -3.08642,0.726849 -3.54369,-0.127551 z m -29.29298,-0.02319 c 0,-0.194028 0.2475,-0.352778 0.54999,-0.352778 0.30249,0 0.45187,0.15875 0.33196,0.352778 -0.11992,0.194027 -0.36741,0.352777 -0.54999,0.352777 -0.18258,0 -0.33196,-0.15875 -0.33196,-0.352777 z M -27.127371,-38.48214 c 0.0169,-0.410966 0.10052,-0.494559 0.21314,-0.213137 0.1019,0.254662 0.0894,0.558933 -0.0278,0.676158 -0.11723,0.117225 -0.20061,-0.09113 -0.18529,-0.463021 z m -14.23304,-5.129655 c 0.23931,-0.241095 0.52396,-0.349487 0.63258,-0.240871 0.10862,0.108616 -0.0872,0.305875 -0.43509,0.438354 -0.50278,0.191447 -0.5433,0.150926 -0.19749,-0.197483 z m -20.87352,-7.613927 c -0.19144,-0.502778 -0.15092,-0.543299 0.19749,-0.197483 0.24109,0.239301 0.34948,0.52396 0.24087,0.632576 -0.10862,0.108616 -0.30588,-0.08718 -0.43836,-0.435093 z m -7.96018,-2.231147 c 0,-0.187938 0.23813,-0.341706 0.52917,-0.341706 0.29104,0 0.52916,0.06239 0.52916,0.138646 0,0.07625 -0.23812,0.230022 -0.52916,0.341705 -0.29104,0.111684 -0.52917,0.04929 -0.52917,-0.138645 z"
       id="path1459" />
  </g>
</svg>
